<?xml version="1.0" encoding="UTF-8" standalone="no"?>
<!-- Creator: fig2dev Version 3.2.8b -->

<!-- CreationDate: 2022-11-08 15:12:56 -->

<!-- Magnification: 1.05 -->

<svg
   width="518pt"
   height="257pt"
   viewBox="930 528 8217 4074"
   version="1.1"
   id="svg54"
   sodipodi:docname="res_trapezio.svg"
   inkscape:version="1.2.1 (9c6d41e410, 2022-07-14)"
   xmlns:inkscape="http://www.inkscape.org/namespaces/inkscape"
   xmlns:sodipodi="http://sodipodi.sourceforge.net/DTD/sodipodi-0.dtd"
   xmlns="http://www.w3.org/2000/svg"
   xmlns:svg="http://www.w3.org/2000/svg">
  <defs
     id="defs58">
    <clipPath
       id="clipPath6219">
      <path
         clip-rule="nonzero"
         d="M 0,0 H 4.804688 V 6.917969 H 0 Z m 0,0"
         id="path1748" />
    </clipPath>
    <clipPath
       id="clipPath8465">
      <path
         clip-rule="nonzero"
         d="M 0,0 H 7 V 10.628906 H 0 Z m 0,0"
         id="path5337" />
    </clipPath>
  </defs>
  <sodipodi:namedview
     id="namedview56"
     pagecolor="#ffffff"
     bordercolor="#000000"
     borderopacity="0.25"
     inkscape:showpageshadow="2"
     inkscape:pageopacity="0.0"
     inkscape:pagecheckerboard="0"
     inkscape:deskcolor="#d1d1d1"
     inkscape:document-units="pt"
     showgrid="false"
     inkscape:zoom="1.9479829"
     inkscape:cx="344.45888"
     inkscape:cy="217.66105"
     inkscape:window-width="1920"
     inkscape:window-height="1128"
     inkscape:window-x="0"
     inkscape:window-y="0"
     inkscape:window-maximized="1"
     inkscape:current-layer="g52" />
  <g
     fill="none"
     id="g52">
    <!-- Arc -->
    <path
       d="m 4369,1752.4801 c 131.576,86.4792 302.4425,86.1671 395.5699,-47.9102"
       stroke="#000000"
       stroke-width="8px"
       id="path2"
       sodipodi:nodetypes="cc" />
    <!-- Line -->
    <polyline
       points=" 1482,1305 3012,540"
       stroke="#000000"
       stroke-width="8px"
       id="polyline4" />
    <!-- Line -->
    <polyline
       points=" 4365,1305 5895,540"
       stroke="#000000"
       stroke-width="8px"
       id="polyline6" />
    <!-- Line -->
    <polyline
       points=" 1485,1305 1485,4545 7605,4545 4365,1305 1485,1305"
       stroke="#000000"
       stroke-width="8px"
       id="polyline8" />
    <!-- Line -->
    <polyline
       points=" 7605,4545 9135,3760"
       stroke="#000000"
       stroke-width="8px"
       id="polyline10" />
    <!-- Line -->
    <polyline
       points=" 9135,3768 5895,540 3015,540"
       stroke="#000000"
       stroke-width="8px"
       id="polyline12" />
    <!-- Line -->
    <polyline
       points=" 1485,2700 5760,2700"
       stroke="#000000"
       stroke-width="8px"
       id="polyline14" />
    <!-- Line -->
    <polyline
       points=" 1485,2925 5985,2925"
       stroke="#000000"
       stroke-width="8px"
       id="polyline16" />
    <!-- Line -->
    <polyline
       points=" 5979,2914 7509,2129"
       stroke="#000000"
       stroke-width="8px"
       id="polyline18" />
    <!-- Line -->
    <polyline
       points=" 5754,2689 7284,1904"
       stroke="#000000"
       stroke-width="8px"
       id="polyline20" />
    <!-- Line -->
    <polyline
       points=" 6120,2025 7830,2025"
       stroke="#000000"
       stroke-width="8px"
       id="polyline22" />
    <!-- Line -->
    <polyline
       points=" 1485,2070 945,2070"
       stroke="#000000"
       stroke-width="8px"
       id="polyline24" />
    <!-- Line -->
    <polyline
       points=" 4365,1305 4365,4590"
       stroke="#000000"
       stroke-width="8px"
       stroke-dasharray="10 30"
       id="polyline26" />
    <!-- Line -->
    <polyline
       points=" 1479,2689 3009,1904"
       stroke="#000000"
       stroke-width="8px"
       id="polyline28" />
    <!-- Line -->
    <polyline
       points=" 3005,1904 7279,1904"
       stroke="#000000"
       stroke-width="8px"
       id="polyline30" />
    <!-- Text -->
    <text
       xml:space="preserve"
       x="3015"
       y="1260"
       fill="#000000"
       font-family="Times"
       font-style="normal"
       font-weight="normal"
       font-size="192"
       text-anchor="start"
       id="text32">a</text>
    <!-- Text -->
    <text
       xml:space="preserve"
       x="3960"
       y="4455"
       fill="#000000"
       font-family="Times"
       font-style="normal"
       font-weight="normal"
       font-size="192"
       text-anchor="start"
       id="text34">b</text>
    <!-- Text -->
    <text
       xml:space="preserve"
       x="1305"
       y="3195"
       fill="#000000"
       font-family="Times"
       font-style="normal"
       font-weight="normal"
       font-size="192"
       text-anchor="start"
       id="text36"
       style="stroke:#0000ff;fill:#0000ff">c</text>
    <!-- Text -->
    <text
       xml:space="preserve"
       x="1562.8752"
       y="2872.0317"
       fill="#000000"
       font-family="Times"
       font-style="normal"
       font-weight="normal"
       font-size="192px"
       text-anchor="start"
       id="text38">dz</text>
    <!-- Text -->
    <text
       xml:space="preserve"
       x="945"
       y="1935"
       fill="#000000"
       font-family="Times"
       font-style="normal"
       font-weight="normal"
       font-size="192"
       text-anchor="start"
       id="text40">A</text>
    <!-- Text -->
    <text
       xml:space="preserve"
       x="7875"
       y="1845"
       fill="#000000"
       font-family="Times"
       font-style="normal"
       font-weight="normal"
       font-size="192"
       text-anchor="start"
       id="text42">B</text>
    <!-- Text -->
    <text
       xml:space="preserve"
       x="1980"
       y="810"
       fill="#000000"
       font-family="Times"
       font-style="normal"
       font-weight="normal"
       font-size="192"
       text-anchor="start"
       id="text44">h</text>
    <!-- Text -->
    <!-- Text -->
    <!-- Text -->
    <text
       xml:space="preserve"
       x="4428.9888"
       y="3675.2603"
       fill="#000000"
       font-family="Times"
       font-style="normal"
       font-weight="normal"
       font-size="192px"
       text-anchor="start"
       id="text50">z</text>
    <path
       style="fill:#ff0000;stroke:#ff0000;stroke-width:31.72586783;stroke-dasharray:none;fill-opacity:1;stroke-opacity:1"
       d="m 4364.9999,2700 c 1394.9999,0 1394.9999,0 1394.9999,0"
       id="path272" />
    <g
       inkscape:label=""
       transform="matrix(1.3535148,0,0,1.3535148,4933.0847,2462.1755)"
       id="g2866"
       style="fill:#ff0000">
      <g
         clip-path="url(#clipPath6219)"
         id="g17"
         transform="matrix(15.8521,0,0,15.8521,-6.68762,2.78601)"
         style="fill:#ff0000">
        <g
           fill="#000000"
           fill-opacity="1"
           id="g15"
           style="fill:#ff0000">
          <g
             id="use13"
             transform="translate(0,6.9180002)"
             style="fill:#ff0000">
            <path
               d="M 2.625,-4.359375 C 1.390625,-4.0625 0.421875,-2.765625 0.421875,-1.5625 0.421875,-0.59375 1.0625,0.125 2,0.125 c 1.15625,0 1.984375,-1.578125 1.984375,-2.953125 0,-0.90625 -0.390625,-1.40625 -0.734375,-1.84375 C 2.890625,-5.125 2.296875,-5.875 2.296875,-6.3125 c 0,-0.21875 0.203125,-0.453125 0.546875,-0.453125 0.3125,0 0.5,0.125 0.71875,0.265625 0.203125,0.125 0.390625,0.25 0.546875,0.25 C 4.359375,-6.25 4.5,-6.484375 4.5,-6.65625 4.5,-6.875 4.34375,-6.890625 3.984375,-6.984375 3.46875,-7.09375 3.328125,-7.09375 3.171875,-7.09375 c -0.78125,0 -1.140625,0.4375 -1.140625,1.03125 0,0.546875 0.296875,1.09375 0.59375,1.703125 z m 0.125,0.21875 c 0.25,0.46875 0.546875,1 0.546875,1.71875 0,0.65625 -0.375,2.328125 -1.296875,2.328125 -0.546875,0 -0.96875,-0.421875 -0.96875,-1.1875 0,-0.625 0.375,-2.5 1.71875,-2.859375 z m 0,0"
               id="path23"
               style="fill:#ff0000" />
          </g>
        </g>
      </g>
    </g>
    <g
       inkscape:label=""
       transform="translate(4445.9897,1589.0972)"
       id="g3777">
      <g
         clip-path="url(#clipPath8465)"
         id="g3775"
         transform="matrix(15.8521,0,0,15.8521,-5.41068,1.90027)">
        <g
           fill="#000000"
           fill-opacity="1"
           id="g3773">
          <g
             id="g3771"
             transform="translate(0,8.302)">
            <path
               d="m 6.765625,-6.953125 c 0,-0.71875 -0.609375,-1.46875 -1.703125,-1.46875 -1.53125,0 -2.515625,1.890625 -2.828125,3.125 l -1.890625,7.5 C 0.328125,2.296875 0.390625,2.3125 0.453125,2.3125 c 0.078125,0 0.140625,0 0.15625,-0.0625 l 0.84375,-3.34375 C 1.5625,-0.4375 2.21875,0.125 2.921875,0.125 4.640625,0.125 6.25,-1.21875 6.25,-3 6.25,-3.453125 6.140625,-3.90625 5.890625,-4.296875 5.75,-4.515625 5.5625,-4.6875 5.375,-4.828125 c 0.859375,-0.453125 1.390625,-1.1875 1.390625,-2.125 z M 4.6875,-4.84375 C 4.5,-4.765625 4.296875,-4.75 4.078125,-4.75 3.90625,-4.75 3.75,-4.734375 3.53125,-4.8125 c 0.125,-0.078125 0.3125,-0.09375 0.5625,-0.09375 0.203125,0 0.421875,0.015625 0.59375,0.0625 z M 6.140625,-7.0625 c 0,0.65625 -0.3125,1.609375 -1.09375,2.046875 C 4.8125,-5.09375 4.5,-5.15625 4.25,-5.15625 4,-5.15625 3.28125,-5.171875 3.28125,-4.796875 3.28125,-4.46875 3.9375,-4.5 4.140625,-4.5 c 0.3125,0 0.578125,-0.078125 0.875,-0.15625 0.375,0.3125 0.546875,0.71875 0.546875,1.3125 0,0.6875 -0.203125,1.25 -0.421875,1.765625 C 4.75,-0.6875 3.8125,-0.125 2.984375,-0.125 c -0.875,0 -1.328125,-0.6875 -1.328125,-1.5 0,-0.109375 0,-0.265625 0.046875,-0.4375 l 0.78125,-3.15625 c 0.390625,-1.5625 1.40625,-2.96875 2.5625,-2.96875 0.859375,0 1.09375,0.59375 1.09375,1.125 z m 0,0"
               id="path3769" />
          </g>
        </g>
      </g>
    </g>
    <path
       style="fill:#00ff00;fill-opacity:1;stroke:#0000ff;stroke-width:15.86293386;stroke-dasharray:none;stroke-dashoffset:0;stroke-opacity:1"
       d="m 1482,1305 3,3239.9999"
       id="path5708" />
  </g>
</svg>
