<?xml version="1.0" encoding="UTF-8" standalone="no"?>
<!-- Creator: fig2dev Version 3.2 Patchlevel 5 -->
<!-- CreationDate: Wed Aug 19 13:59:18 2009 -->
<!-- Magnification: 1.050 -->
<svg
   xmlns:dc="http://purl.org/dc/elements/1.1/"
   xmlns:cc="http://creativecommons.org/ns#"
   xmlns:rdf="http://www.w3.org/1999/02/22-rdf-syntax-ns#"
   xmlns:svg="http://www.w3.org/2000/svg"
   xmlns="http://www.w3.org/2000/svg"
   xmlns:sodipodi="http://sodipodi.sourceforge.net/DTD/sodipodi-0.dtd"
   xmlns:inkscape="http://www.inkscape.org/namespaces/inkscape"
   width="5.5in"
   height="5.2in"
   viewBox="1975 459 6540 6261"
   id="svg2"
   sodipodi:version="0.32"
   inkscape:version="0.46"
   sodipodi:docname="spira_vettore.svg"
   inkscape:output_extension="org.inkscape.output.svg.inkscape">
  <metadata
     id="metadata65">
    <rdf:RDF>
      <cc:Work
         rdf:about="">
        <dc:format>image/svg+xml</dc:format>
        <dc:type
           rdf:resource="http://purl.org/dc/dcmitype/StillImage" />
      </cc:Work>
    </rdf:RDF>
  </metadata>
  <defs
     id="defs63">
    <inkscape:perspective
       sodipodi:type="inkscape:persp3d"
       inkscape:vp_x="0 : 233.99998 : 1"
       inkscape:vp_y="0 : 1000 : 0"
       inkscape:vp_z="495 : 233.99998 : 1"
       inkscape:persp3d-origin="247.5 : 155.99999 : 1"
       id="perspective67" />
  </defs>
  <sodipodi:namedview
     inkscape:window-height="746"
     inkscape:window-width="1024"
     inkscape:pageshadow="2"
     inkscape:pageopacity="0.0"
     guidetolerance="10.0"
     gridtolerance="10.0"
     objecttolerance="10.0"
     borderopacity="1.0"
     bordercolor="#666666"
     pagecolor="#ffffff"
     id="base"
     showgrid="false"
     inkscape:zoom="1.077316"
     inkscape:cx="157.83272"
     inkscape:cy="245.33557"
     inkscape:window-x="-5"
     inkscape:window-y="-3"
     inkscape:current-layer="g4" />
  <g
     style="stroke-width:.025in; stroke:black; fill:none"
     id="g4">
<!-- Arc -->    <path
       style="stroke:#000000;stroke-width:8;stroke-linecap:butt;"
       d="M 5385,4015 A 250 250  0  0  1  5480  4393 "
       id="path6" />
<!-- Ellipse -->    <path
       transform="translate(4299,4393) rotate(-0.00000000)"
       style="stroke:#000000;stroke-width:8"
       d="M 2314,0 C 2314,625.416 1277.328,1133 1.4169163e-13,1133 C -1277.328,1133 -2314,625.416 -2314,1.3875248e-13 C -2314,-625.416 -1277.328,-1133 -4.250749e-13,-1133 C 1277.328,-1133 2314,-625.416 2314,0 z"
       id="ellipse8" />
<!-- Line --><!-- Arrowhead on XXXpoint 4299 4393 - 2137 6553-->    <g
       id="g2442"
       inkscape:transform-center-x="63.9224"
       inkscape:transform-center-y="-99.015857"
       transform="matrix(-0.178599,0.9839219,-0.9839219,-0.178599,9387.4352,943.09053)">
      <path
         id="polyline10"
         d="M 4299,4393 L 2160,6530"
         style="stroke:#000000;stroke-width:8;stroke-linecap:butt;stroke-linejoin:miter" />
      <path
         id="polyline12"
         d="M 2221,6413 L 2149,6541 L 2277,6469"
         style="stroke:#000000;stroke-width:8" />
    </g>
<!-- Line -->    <path
       style="stroke:#000000;stroke-width:8;stroke-linecap:butt;stroke-linejoin:miter"
       d="M 4299,5863.57 L 4299,489"
       id="polyline14"
       sodipodi:nodetypes="cc" />
<!-- Arrowhead on XXXpoint 4299 6708 - 4299 456-->    <path
       style="stroke:#000000;stroke-width:8"
       d="M 4338,614 L 4299,472 L 4259,614"
       id="polyline16" />
<!-- Line -->    <path
       style="stroke:#000000;stroke-width:8;stroke-linecap:butt;stroke-linejoin:miter"
       d="M 4299,4393 L 8486,4393"
       id="polyline18" />
<!-- Arrowhead on XXXpoint 4299 4393 - 8519 4393-->    <path
       style="stroke:#000000;stroke-width:8"
       d="M 8362,4432 L 8503,4393 L 8362,4353"
       id="polyline20" />
<!-- Line -->    <path
       style="stroke:#000000;stroke-width:8;stroke-linecap:butt;stroke-linejoin:miter"
       d="M 4299,4393 L 6172,3736"
       id="polyline22" />
<!-- Arrowhead on XXXpoint 4299 4393 - 6203 3727-->    <path
       style="stroke:#000000;stroke-width:8"
       d="M 6067,3815 L 6188,3732 L 6041,3741"
       id="polyline24" />
<!-- Line -->    <path
       style="stroke:#000000;stroke-width:8;stroke-linecap:butt;stroke-linejoin:miter"
       d="M 6188,3732 L 6939,1149"
       id="polyline26" />
<!-- Arrowhead on XXXpoint 6188 3732 - 6949 1118-->    <path
       style="stroke:#000000;stroke-width:8"
       d="M 6942,1279 L 6944,1132 L 6867,1257"
       id="polyline28" />
<!-- Line -->    <path
       style="stroke:#000000;stroke-width:8;stroke-linecap:butt;stroke-linejoin:miter"
       d="M 6935,1147 L 4299,4393"
       id="polyline30" />
<!-- Arrowhead on XXXpoint 4299 4393 - 6954 1122-->    <path
       style="stroke:#000000;stroke-width:8"
       d="M 6886,1269 L 6944,1134 L 6824,1219"
       id="polyline32" />
<!-- Line -->    <path
       style="stroke:#000000;stroke-width:8;stroke-linecap:butt;stroke-linejoin:miter"
       d="M 6188,3732 L 5918,3506"
       id="polyline34" />
<!-- Arrowhead on XXXpoint 6188 3732 - 5892 3485-->    <path
       style="stroke:#000000;stroke-width:8"
       d="M 6023,3552 L 5906,3497 L 5982,3601"
       id="polyline36" />
<!-- Line -->    <path
       style="stroke:#000000;stroke-width:8;stroke-linecap:butt;stroke-linejoin:miter"
       d="M 5244,5433 L 5007,5385"
       id="polyline38" />
<!-- Line -->    <path
       style="stroke:#000000;stroke-width:8;stroke-linecap:butt;stroke-linejoin:miter"
       d="M 5244,5433 L 5055,5527"
       id="polyline40" />
<!-- Text -->    <path
       style="font-size:215px;font-style:normal;font-weight:normal;text-anchor:start;fill:#000000;stroke:#000000;font-family:Times"
       d="M 7129.43,1118.435 C 7135.02,1118.865 7138.675,1119.08 7144.265,1119.08 C 7161.035,1119.08 7172.645,1116.93 7181.89,1111.77 C 7194.79,1104.89 7202.53,1091.775 7202.53,1077.585 C 7202.53,1068.555 7199.52,1060.385 7193.715,1054.15 C 7185.115,1044.69 7166.41,1038.67 7146.2,1038.67 L 7089.44,1038.67 L 7089.44,1042.755 C 7105.35,1044.475 7107.5,1046.625 7107.5,1062.105 L 7107.5,1155.2 C 7107.5,1173.26 7105.78,1175.41 7089.44,1176.915 L 7089.44,1181 L 7149.64,1181 L 7149.64,1176.915 C 7132.655,1176.27 7129.43,1173.26 7129.43,1157.565 L 7129.43,1118.435 M 7129.43,1053.935 C 7129.43,1048.13 7130.935,1046.625 7136.74,1046.625 C 7165.765,1046.625 7179.095,1056.73 7179.095,1078.875 C 7179.095,1099.73 7166.41,1110.48 7141.685,1110.48 C 7137.385,1110.48 7134.375,1110.265 7129.43,1109.835 L 7129.43,1053.935"
       id="text42" />
<!-- Text -->    <path
       style="font-size:215px;font-style:normal;font-weight:normal;text-anchor:start;fill:#000000;stroke:#000000;font-family:Times"
       d="M 8137.77,4204 L 8180.985,4204 L 8180.985,4200.775 C 8174.32,4200.775 8170.02,4197.335 8163.355,4187.875 L 8135.835,4145.735 L 8153.68,4119.935 C 8157.765,4114.13 8164.215,4110.69 8171.095,4110.475 L 8171.095,4107.25 L 8137.125,4107.25 L 8137.125,4110.475 C 8143.575,4110.905 8145.725,4112.195 8145.725,4115.205 C 8145.725,4117.785 8143.145,4122.515 8137.77,4129.18 C 8136.695,4130.47 8134.115,4134.34 8131.32,4138.64 L 8128.31,4134.34 C 8122.29,4125.31 8118.42,4118 8118.42,4115.205 C 8118.42,4112.195 8121.215,4110.69 8127.665,4110.475 L 8127.665,4107.25 L 8083.16,4107.25 L 8083.16,4110.475 L 8085.095,4110.475 C 8091.545,4110.475 8094.985,4113.27 8101.65,4123.375 L 8121.86,4154.335 L 8097.35,4189.81 C 8090.9,4198.625 8088.75,4200.13 8081.655,4200.775 L 8081.655,4204 L 8112.83,4204 L 8112.83,4200.775 C 8106.81,4200.775 8104.23,4199.7 8104.23,4196.905 C 8104.23,4195.615 8105.735,4192.39 8108.53,4188.09 L 8125.515,4161.645 L 8145.08,4191.745 C 8145.94,4193.035 8146.37,4194.325 8146.37,4195.615 C 8146.37,4199.485 8144.865,4200.345 8137.77,4200.775 L 8137.77,4204"
       id="text44" />
<!-- Text -->    <path
       style="font-size:215px;font-style:normal;font-weight:normal;text-anchor:start;fill:#000000;stroke:#000000;font-family:Times"
       d="M 4529.87,773.975 L 4526,773.115 C 4523.85,783.86499 4522.56,787.305 4519.765,790.96 C 4516.755,794.615 4509.445,796.55 4498.48,796.55 L 4468.81,796.55 L 4526.645,709.475 L 4526.645,706.25 L 4452.04,706.25 L 4451.395,731.62 L 4455.265,731.62 C 4457.2,715.92502 4460.425,712.7 4473.325,712.7 L 4502.995,712.7 L 4445.805,799.775 L 4445.805,803 L 4526.86,803 L 4529.87,773.975"
       id="text46" />
<!-- Text --><!-- Text -->    <path
       style="font-size:215px;font-style:normal;font-weight:normal;text-anchor:start;fill:#000000;stroke:#000000;font-family:Times"
       d="M 5362.725,5739.565 C 5362.725,5755.69 5359.93,5758.27 5341.87,5758.915 L 5341.87,5763 L 5405.725,5763 L 5405.725,5758.915 C 5388.095,5758.27 5384.655,5755.26 5384.655,5739.565 L 5384.655,5644.105 C 5384.655,5628.41 5387.665,5625.615 5405.725,5624.755 L 5405.725,5620.67 L 5341.87,5620.67 L 5341.87,5624.755 C 5360.145,5625.83 5362.725,5628.195 5362.725,5644.105 L 5362.725,5739.565"
       id="text50" />
<!-- Text -->    <path
       style="font-size:215px;font-style:normal;font-weight:bold;text-anchor:start;fill:#000000;stroke:#000000;font-family:Times"
       d="M 5857.87,2167.885 L 5817.235,2167.885 L 5817.235,2173.045 C 5826.48,2174.335 5828.845,2177.13 5828.845,2185.73 L 5828.845,2248.94 C 5828.845,2257.755 5826.695,2260.12 5817.235,2261.84 L 5817.235,2267 L 5874.425,2267 L 5874.425,2261.84 C 5861.31,2260.98 5858.73,2258.185 5858.73,2244.855 L 5858.73,2204.22 C 5858.73,2193.04 5864.75,2183.795 5871.845,2183.795 C 5873.565,2183.795 5875.5,2185.3 5877.865,2188.74 C 5881.95,2194.545 5885.175,2196.48 5890.765,2196.48 C 5898.72,2196.48 5904.31,2190.46 5904.31,2182.075 C 5904.31,2172.4 5897,2165.305 5886.895,2165.305 C 5876.145,2165.305 5867.975,2171.11 5857.87,2185.515 L 5857.87,2167.885"
       id="text52" />
<!-- Text -->    <path
       style="font-size:215px;font-style:normal;font-weight:bold;text-anchor:start;fill:#000000;stroke:#000000;font-family:Times"
       d="M 6072.885,3450.795 C 6082.775,3448 6088.15,3446.925 6101.48,3445.42 L 6114.81,3443.7 L 6114.81,3438.755 C 6104.92,3438.11 6102.125,3435.315 6102.125,3426.285 L 6102.125,3302.66 L 6055.9,3302.66 L 6055.9,3307.82 C 6070.305,3308.895 6072.24,3310.4 6072.24,3320.29 L 6072.24,3359.635 C 6062.995,3349.745 6056.545,3346.305 6046.655,3346.305 C 6023.005,3346.305 6005.375,3369.31 6005.375,3400.485 C 6005.375,3429.725 6021.715,3451.01 6044.29,3451.01 C 6055.685,3451.01 6062.78,3447.57 6072.885,3436.82 L 6072.885,3450.795 M 6072.24,3423.92 C 6072.24,3425.21 6070.09,3428.865 6067.51,3431.66 C 6063.21,3436.605 6058.695,3438.97 6053.965,3438.97 C 6042.57,3438.97 6037.195,3426.07 6037.195,3398.765 C 6037.195,3371.03 6043,3358.345 6055.47,3358.345 C 6062.565,3358.345 6069.23,3363.505 6072.24,3371.675 L 6072.24,3423.92 M 6163.9677,3302.66 L 6123.1177,3302.66 L 6123.1177,3307.82 C 6130.6427,3308.465 6134.0827,3312.335 6134.0827,3320.29 L 6134.0827,3429.94 C 6134.0827,3437.895 6130.4277,3442.195 6123.1177,3442.84 L 6123.1177,3448 L 6174.5027,3448 L 6174.5027,3442.84 C 6167.4077,3442.625 6163.9677,3438.54 6163.9677,3429.94 L 6163.9677,3302.66 M 6213.7066,3361.14 C 6220.8016,3330.18 6223.1666,3318.57 6223.1666,3313.84 C 6223.1666,3305.67 6217.1466,3299.435 6209.1916,3299.435 C 6201.0216,3299.435 6195.4316,3305.455 6195.4316,3314.7 C 6195.4316,3319.215 6198.0116,3332.975 6202.5266,3350.82 C 6202.7416,3352.325 6203.8166,3356.625 6204.8916,3361.14 L 6213.7066,3361.14"
       id="text54" />
<!-- Text -->    <path
       style="font-size:215px;font-style:normal;font-weight:bold;text-anchor:start;fill:#000000;stroke:#000000;font-family:Times"
       d="M 6801.87,2451.885 L 6761.235,2451.885 L 6761.235,2457.045 C 6770.48,2458.335 6772.845,2461.13 6772.845,2469.73 L 6772.845,2532.94 C 6772.845,2541.755 6770.695,2544.12 6761.235,2545.84 L 6761.235,2551 L 6818.425,2551 L 6818.425,2545.84 C 6805.31,2544.98 6802.73,2542.185 6802.73,2528.855 L 6802.73,2488.22 C 6802.73,2477.04 6808.75,2467.795 6815.845,2467.795 C 6817.565,2467.795 6819.5,2469.3 6821.865,2472.74 C 6825.95,2478.545 6829.175,2480.48 6834.765,2480.48 C 6842.72,2480.48 6848.31,2474.46 6848.31,2466.075 C 6848.31,2456.4 6841,2449.305 6830.895,2449.305 C 6820.145,2449.305 6811.975,2455.11 6801.87,2469.515 L 6801.87,2451.885 M 6912.0273,2489.295 L 6859.7823,2489.295 L 6859.7823,2514.235 L 6912.0273,2514.235 L 6912.0273,2489.295 M 6968.9989,2451.885 L 6928.3639,2451.885 L 6928.3639,2457.045 C 6937.6089,2458.335 6939.9739,2461.13 6939.9739,2469.73 L 6939.9739,2532.94 C 6939.9739,2541.755 6937.8239,2544.12 6928.3639,2545.84 L 6928.3639,2551 L 6985.5539,2551 L 6985.5539,2545.84 C 6972.4389,2544.98 6969.8589,2542.185 6969.8589,2528.855 L 6969.8589,2488.22 C 6969.8589,2477.04 6975.8789,2467.795 6982.9739,2467.795 C 6984.6939,2467.795 6986.6289,2469.3 6988.9939,2472.74 C 6993.0789,2478.545 6996.3039,2480.48 7001.8939,2480.48 C 7009.8489,2480.48 7015.4389,2474.46 7015.4389,2466.075 C 7015.4389,2456.4 7008.1289,2449.305 6998.0239,2449.305 C 6987.2739,2449.305 6979.1039,2455.11 6968.9989,2469.515 L 6968.9989,2451.885 M 7051.8512,2464.14 C 7058.9462,2433.18 7061.3112,2421.57 7061.3112,2416.84 C 7061.3112,2408.67 7055.2912,2402.435 7047.3362,2402.435 C 7039.1662,2402.435 7033.5762,2408.455 7033.5762,2417.7 C 7033.5762,2422.215 7036.1562,2435.975 7040.6712,2453.82 C 7040.8862,2455.325 7041.9612,2459.625 7043.0362,2464.14 L 7051.8512,2464.14"
       id="text56" />
<!-- Text -->    <path
       style="font-size:215px;font-style:normal;font-weight:bold;text-anchor:start;fill:#000000;stroke:#000000;font-family:Times"
       d="M 5148.87,3868.885 L 5108.235,3868.885 L 5108.235,3874.045 C 5117.48,3875.335 5119.845,3878.13 5119.845,3886.73 L 5119.845,3949.94 C 5119.845,3958.755 5117.695,3961.12 5108.235,3962.84 L 5108.235,3968 L 5165.425,3968 L 5165.425,3962.84 C 5152.31,3961.98 5149.73,3959.185 5149.73,3945.855 L 5149.73,3905.22 C 5149.73,3894.04 5155.75,3884.795 5162.845,3884.795 C 5164.565,3884.795 5166.5,3886.3 5168.865,3889.74 C 5172.95,3895.545 5176.175,3897.48 5181.765,3897.48 C 5189.72,3897.48 5195.31,3891.46 5195.31,3883.075 C 5195.31,3873.4 5188,3866.305 5177.895,3866.305 C 5167.145,3866.305 5158.975,3872.11 5148.87,3886.515 L 5148.87,3868.885 M 5231.7223,3881.14 C 5238.8173,3850.18 5241.1823,3838.57 5241.1823,3833.84 C 5241.1823,3825.67 5235.1623,3819.435 5227.2073,3819.435 C 5219.0373,3819.435 5213.4473,3825.455 5213.4473,3834.7 C 5213.4473,3839.215 5216.0273,3852.975 5220.5423,3870.82 C 5220.7573,3872.325 5221.8323,3876.625 5222.9073,3881.14 L 5231.7223,3881.14"
       id="text58" />
<!-- Text -->    <path
       style="font-size:215px;font-style:normal;font-weight:normal;text-anchor:start;fill:#000000;stroke:#000000;font-family:Times"
       d="M 5628.825,4107.25 L 5607.11,4107.25 L 5607.11,4082.31 C 5607.11,4080.16 5606.895,4079.515 5605.605,4079.515 C 5604.1,4081.45 5602.81,4083.385 5601.305,4085.535 C 5593.135,4097.36 5583.89,4107.68 5580.45,4108.54 C 5578.085,4110.045 5576.795,4111.55 5576.795,4112.625 C 5576.795,4113.27 5577.01,4113.7 5577.655,4114.13 L 5589.05,4114.13 L 5589.05,4178.845 C 5589.05,4196.905 5595.5,4206.15 5608.185,4206.15 C 5618.72,4206.15 5626.89,4200.99 5633.985,4189.81 L 5631.19,4187.445 C 5626.675,4192.82 5623.02,4194.97 5618.29,4194.97 C 5610.335,4194.97 5607.11,4189.165 5607.11,4175.62 L 5607.11,4114.13 L 5628.825,4114.13 L 5628.825,4107.25 M 5667.3839,4130.255 C 5676.4139,4120.365 5682.8639,4116.71 5691.2489,4116.71 C 5701.9989,4116.71 5707.3739,4124.45 5707.3739,4139.5 L 5707.3739,4182.07 C 5707.3739,4196.69 5705.2239,4199.485 5692.7539,4200.775 L 5692.7539,4204 L 5738.3339,4204 L 5738.3339,4200.775 C 5726.7239,4198.625 5725.4339,4196.905 5725.4339,4182.07 L 5725.4339,4139.285 C 5725.4339,4116.71 5716.4039,4105.1 5698.9889,4105.1 C 5686.3039,4105.1 5677.2739,4110.26 5667.3839,4123.16 L 5667.3839,4057.8 L 5666.3089,4057.155 C 5658.9989,4059.735 5653.6239,4061.455 5641.5839,4064.895 L 5635.7789,4066.615 L 5635.7789,4070.055 C 5636.6389,4069.84 5637.2839,4069.84 5638.3589,4069.84 C 5647.6039,4069.84 5649.3239,4071.56 5649.3239,4080.805 L 5649.3239,4182.07 C 5649.3239,4197.12 5648.0339,4199.055 5635.5639,4200.775 L 5635.5639,4204 L 5682.0039,4204 L 5682.0039,4200.775 C 5669.5339,4199.485 5667.3839,4196.905 5667.3839,4182.07 L 5667.3839,4130.255 M 5828.8489,4168.74 C 5818.5289,4185.08 5809.2839,4191.315 5795.5239,4191.315 C 5783.2689,4191.315 5774.0239,4185.08 5767.7889,4172.825 C 5763.9189,4164.655 5762.4139,4157.56 5761.9839,4144.445 L 5828.2039,4144.445 C 5826.4839,4130.47 5824.3339,4124.235 5818.9589,4117.355 C 5812.5089,4109.615 5802.6189,4105.1 5791.4389,4105.1 C 5780.6889,4105.1 5770.5839,4108.97 5762.4139,4116.28 C 5752.3089,4125.095 5746.5039,4140.36 5746.5039,4157.99 C 5746.5039,4187.66 5761.9839,4206.15 5786.7089,4206.15 C 5807.1339,4206.15 5823.2589,4193.465 5832.2889,4170.245 L 5828.8489,4168.74 M 5762.4139,4137.565 C 5764.7789,4120.795 5772.0889,4112.84 5785.2039,4112.84 C 5798.3189,4112.84 5803.4789,4118.86 5806.2739,4137.565 L 5762.4139,4137.565 M 5891.2762,4107.25 L 5869.5612,4107.25 L 5869.5612,4082.31 C 5869.5612,4080.16 5869.3462,4079.515 5868.0562,4079.515 C 5866.5512,4081.45 5865.2612,4083.385 5863.7562,4085.535 C 5855.5862,4097.36 5846.3412,4107.68 5842.9012,4108.54 C 5840.5362,4110.045 5839.2462,4111.55 5839.2462,4112.625 C 5839.2462,4113.27 5839.4612,4113.7 5840.1062,4114.13 L 5851.5012,4114.13 L 5851.5012,4178.845 C 5851.5012,4196.905 5857.9512,4206.15 5870.6362,4206.15 C 5881.1712,4206.15 5889.3412,4200.99 5896.4362,4189.81 L 5893.6412,4187.445 C 5889.1262,4192.82 5885.4712,4194.97 5880.7412,4194.97 C 5872.7862,4194.97 5869.5612,4189.165 5869.5612,4175.62 L 5869.5612,4114.13 L 5891.2762,4114.13 L 5891.2762,4107.25 M 5991.1101,4189.81 C 5987.4551,4192.82 5984.8751,4193.895 5981.6501,4193.895 C 5976.7051,4193.895 5975.2001,4190.885 5975.2001,4181.425 L 5975.2001,4139.5 C 5975.2001,4128.32 5974.1251,4122.085 5970.9001,4116.925 C 5966.1701,4109.185 5956.9251,4105.1 5944.2401,4105.1 C 5924.0301,4105.1 5908.1201,4115.635 5908.1201,4129.18 C 5908.1201,4134.125 5912.4201,4138.425 5917.3651,4138.425 C 5922.5251,4138.425 5927.0401,4134.125 5927.0401,4129.395 C 5927.0401,4128.535 5926.8251,4127.46 5926.6101,4125.955 C 5926.1801,4124.02 5925.9651,4122.3 5925.9651,4120.795 C 5925.9651,4114.99 5932.8451,4110.26 5941.4451,4110.26 C 5951.9801,4110.26 5957.7851,4116.495 5957.7851,4128.105 L 5957.7851,4141.22 C 5924.6751,4154.55 5921.0201,4156.27 5911.7751,4164.44 C 5907.0451,4168.74 5904.0351,4176.05 5904.0351,4183.145 C 5904.0351,4196.69 5913.4951,4206.15 5926.6101,4206.15 C 5936.0701,4206.15 5944.8851,4201.635 5958.0001,4190.455 C 5959.0751,4201.635 5962.9451,4206.15 5971.7601,4206.15 C 5979.0701,4206.15 5983.5851,4203.57 5991.1101,4195.4 L 5991.1101,4189.81 M 5957.7851,4177.555 C 5957.7851,4184.22 5956.7101,4186.155 5952.1951,4188.735 C 5947.0351,4191.745 5941.0151,4193.68 5936.5001,4193.68 C 5928.9751,4193.68 5922.9551,4186.37 5922.9551,4177.125 L 5922.9551,4176.265 C 5922.9551,4163.58 5931.7701,4155.84 5957.7851,4146.38 L 5957.7851,4177.555"
       id="text60" />
    <path
       style="font-size:215px;font-style:normal;font-weight:normal;text-anchor:start;fill:#000000;stroke:#000000;font-family:Times"
       d="M 2890.019,1847.1578 L 2860.994,1847.1578 L 2860.994,1850.3828 C 2867.874,1850.3828 2871.314,1852.3178 2871.314,1855.7578 C 2871.314,1856.6178 2871.099,1857.9078 2870.454,1859.4128 L 2849.599,1918.7528 L 2824.874,1864.3578 C 2823.584,1861.3478 2822.724,1858.5528 2822.724,1856.1878 C 2822.724,1852.3178 2825.9491,1850.8128 2835.194,1850.3828 L 2835.194,1847.1578 L 2790.904,1847.1578 L 2790.904,1850.1678 C 2796.494,1851.0278 2800.149,1853.3928 2801.869,1857.0478 L 2826.379,1909.9378 L 2827.024,1911.6578 L 2830.249,1918.1078 C 2836.269,1928.8578 2839.709,1936.5978 2839.709,1939.8228 C 2839.709,1943.0478 2834.764,1956.5928 2831.109,1963.0428 C 2828.099,1968.6328 2823.369,1972.7178 2820.359,1972.7178 C 2819.069,1972.7178 2817.134,1972.2878 2814.984,1971.2128 C 2810.899,1969.7078 2807.244,1968.8478 2803.589,1968.8478 C 2798.644,1968.8478 2794.344,1973.1478 2794.344,1978.3078 C 2794.344,1985.4028 2801.2241,1990.7778 2810.254,1990.7778 C 2824.659,1990.7778 2834.9791,1978.7378 2846.589,1947.7778 L 2879.699,1860.0578 C 2882.494,1853.1778 2884.859,1851.0278 2890.019,1850.3828 L 2890.019,1847.1578"
       id="text2446" />
  </g>
</svg>
