<?xml version="1.0" encoding="UTF-8" standalone="no"?>
<svg
   xmlns:dc="http://purl.org/dc/elements/1.1/"
   xmlns:cc="http://creativecommons.org/ns#"
   xmlns:rdf="http://www.w3.org/1999/02/22-rdf-syntax-ns#"
   xmlns:svg="http://www.w3.org/2000/svg"
   xmlns="http://www.w3.org/2000/svg"
   xmlns:xlink="http://www.w3.org/1999/xlink"
   xmlns:sodipodi="http://sodipodi.sourceforge.net/DTD/sodipodi-0.dtd"
   xmlns:inkscape="http://www.inkscape.org/namespaces/inkscape"
   width="600"
   height="480"
   viewBox="0 0 600 480"
   id="svg2"
   sodipodi:version="0.32"
   inkscape:version="0.46"
   sodipodi:docname="fluido_accelerato.svg"
   inkscape:output_extension="org.inkscape.output.svg.inkscape">
  <metadata
     id="metadata137">
    <rdf:RDF>
      <cc:Work
         rdf:about="">
        <dc:format>image/svg+xml</dc:format>
        <dc:type
           rdf:resource="http://purl.org/dc/dcmitype/StillImage" />
      </cc:Work>
    </rdf:RDF>
  </metadata>
  <sodipodi:namedview
     inkscape:window-height="749"
     inkscape:window-width="1024"
     inkscape:pageshadow="2"
     inkscape:pageopacity="0.0"
     guidetolerance="10.0"
     gridtolerance="10.0"
     objecttolerance="10.0"
     borderopacity="1.0"
     bordercolor="#666666"
     pagecolor="#ffffff"
     id="base"
     showgrid="false"
     inkscape:zoom="0.48738524"
     inkscape:cx="265.22095"
     inkscape:cy="145.51205"
     inkscape:window-x="0"
     inkscape:window-y="19"
     inkscape:current-layer="g132" />
  <desc
     id="desc4">Produced by GNUPLOT 4.2 patchlevel 3  </desc>
  <defs
     id="defs6">
    <marker
       inkscape:stockid="Arrow1Lend"
       orient="auto"
       refY="0.0"
       refX="0.0"
       id="Arrow1Lend"
       style="overflow:visible;">
      <path
         id="path3803"
         d="M 0.0,0.0 L 5.0,-5.0 L -12.5,0.0 L 5.0,5.0 L 0.0,0.0 z "
         style="fill-rule:evenodd;stroke:#000000;stroke-width:1.0pt;marker-start:none;"
         transform="scale(0.8) rotate(180) translate(12.5,0)" />
    </marker>
    <inkscape:perspective
       sodipodi:type="inkscape:persp3d"
       inkscape:vp_x="0 : 240 : 1"
       inkscape:vp_y="0 : 1000 : 0"
       inkscape:vp_z="600 : 240 : 1"
       inkscape:persp3d-origin="300 : 160 : 1"
       id="perspective139" />
    <circle
       id="gpDot"
       r="1" />
    <path
       id="gpPt0"
       style="stroke-width:0.222"
       d="M-1,0 h2 M0,-1 v2" />
    <path
       id="gpPt1"
       style="stroke-width:0.222"
       d="M-1,-1 L1,1 M1,-1 L-1,1" />
    <path
       id="gpPt2"
       style="stroke-width:0.222"
       d="M-1,0 L1,0 M0,-1 L0,1 M-1,-1 L1,1 M-1,1 L1,-1" />
    <rect
       id="gpPt3"
       style="stroke-width:0.222"
       x="-1"
       y="-1"
       width="2"
       height="2" />
    <use
       xlink:href="#gpPt3"
       id="gpPt4"
       style="fill:currentColor; stroke:none" />
    <circle
       id="gpPt5"
       style="stroke-width:0.222"
       cx="0"
       cy="0"
       r="1" />
    <use
       xlink:href="#gpPt5"
       id="gpPt6"
       style="fill:currentColor; stroke:none" />
    <path
       id="gpPt7"
       style="stroke-width:0.222"
       d="M0,-1.33 L-1.33,0.67 L1.33,0.67 z" />
    <use
       xlink:href="#gpPt7"
       id="gpPt8"
       style="fill:currentColor; stroke:none" />
    <use
       xlink:href="#gpPt7"
       id="gpPt9"
       transform="rotate(180)" />
    <use
       xlink:href="#gpPt9"
       id="gpPt10"
       style="fill:currentColor; stroke:none" />
    <use
       xlink:href="#gpPt3"
       id="gpPt11"
       transform="rotate(45)" />
    <use
       xlink:href="#gpPt11"
       id="gpPt12"
       style="fill:currentColor; stroke:none" />
  </defs>
  <g
     style="fill:none; color:white; stroke:white; stroke-width:1.00; stroke-linecap:butt; stroke-linejoin:miter"
     id="g22" />
  <g
     style="fill:none; color:black; stroke:black; stroke-width:1.00; stroke-linecap:butt; stroke-linejoin:miter"
     id="g24">
    <path
       d="M85.9,353.2 L242.7,252.3 M514.1,310.5 L242.7,252.3 M85.9,353.2 L85.9,151.5 M242.7,252.3 L242.7,53.3    M514.1,310.5 L514.1,219.1 M85.9,353.2 L91.9,349.3 "
       id="path26" />
    <g
       transform="translate(80.3,365.5)"
       style="stroke:none; fill:black; font-family:Arial; font-size:12.00pt; text-anchor:middle"
       id="g28">
      <text
         id="text30">-10</text>
    </g>
    <path
       d="M242.7,252.3 L236.6,256.2 M153.8,367.7 L159.8,363.8 "
       id="path32" />
    <g
       transform="translate(148.2,380.0)"
       style="stroke:none; fill:black; font-family:Arial; font-size:12.00pt; text-anchor:middle"
       id="g34">
      <text
         id="text36">-5</text>
    </g>
    <path
       d="M310.5,266.8 L304.4,270.7 M221.7,382.3 L227.7,378.4 "
       id="path38" />
    <g
       transform="translate(216.1,394.6)"
       style="stroke:none; fill:black; font-family:Arial; font-size:12.00pt; text-anchor:middle"
       id="g40">
      <text
         id="text42"> 0</text>
    </g>
    <path
       d="M378.3,281.4 L372.3,285.3 M289.5,396.9 L295.6,393.0 "
       id="path44" />
    <g
       transform="translate(284.0,409.1)"
       style="stroke:none; fill:black; font-family:Arial; font-size:12.00pt; text-anchor:middle"
       id="g46">
      <text
         id="text48"> 5</text>
    </g>
    <path
       d="M446.2,296.0 L440.2,299.9 M357.3,411.4 L363.4,407.5 "
       id="path50" />
    <path
       d="M514.1,310.5 L508.1,314.4 M357.3,411.4 L349.5,409.7 "
       id="path56" />
    <g
       transform="translate(364.5,419.3)"
       style="stroke:none; fill:black; font-family:Arial; font-size:12.00pt; text-anchor:middle"
       id="g58">
      <text
         id="text60">-10</text>
    </g>
    <path
       d="M85.9,353.2 L93.7,354.8 M396.5,386.2 L388.7,384.5 "
       id="path62" />
    <g
       transform="translate(403.7,394.0)"
       style="stroke:none; fill:black; font-family:Arial; font-size:12.00pt; text-anchor:middle"
       id="g64">
      <text
         id="text66">-5</text>
    </g>
    <path
       d="M125.1,327.9 L132.9,329.6 M435.7,361.0 L427.9,359.3 "
       id="path68" />
    <g
       transform="translate(442.9,368.8)"
       style="stroke:none; fill:black; font-family:Arial; font-size:12.00pt; text-anchor:middle"
       id="g70">
      <text
         id="text72"> 0</text>
    </g>
    <path
       d="M164.3,302.7 L172.1,304.4 M474.9,335.7 L467.1,334.1 "
       id="path74" />
    <g
       transform="translate(482.1,343.6)"
       style="stroke:none; fill:black; font-family:Arial; font-size:12.00pt; text-anchor:middle"
       id="g76">
      <text
         id="text78"> 5</text>
    </g>
    <path
       d="M203.5,277.5 L211.3,279.2 M514.1,310.5 L506.3,308.8 "
       id="path80" />
    <g
       transform="translate(521.3,318.4)"
       style="stroke:none; fill:black; font-family:Arial; font-size:12.00pt; text-anchor:middle"
       id="g82">
      <text
         id="text84"> 10</text>
    </g>
    <path
       d="M242.7,252.3 L250.5,253.9 M85.9,285.9 L94.9,285.9 "
       id="path86" />
    <path
       d="M85.9,259.0 L94.9,259.0 "
       id="path92" />
    <path
       d="M85.9,232.1 L94.9,232.1 "
       id="path98" />
    <path
       d="M85.9,205.3 L94.9,205.3 "
       id="path104" />
    <path
       d="M85.9,178.4 L94.9,178.4 "
       id="path110" />
    <g
       transform="translate(67.9,156.0)"
       style="stroke:none; fill:black; font-family:Arial; font-size:12.00pt; text-anchor:end"
       id="g118" />
  </g>
  <g
     style="fill:none; color:red; stroke:red; stroke-width:1.00; stroke-linecap:butt; stroke-linejoin:miter"
     id="g122">
    <path
       d="M85.8,154.2 L88.5,155.8 L91.2,157.5 L94.0,159.2 L96.7,160.9 L99.5,162.5 L102.2,164.2 L105.0,165.9    L107.7,167.6 L110.4,169.2 L113.2,170.9 L115.9,172.6 L118.7,174.3 L121.4,176.0 L124.2,177.6 L126.9,179.3    L129.6,181.0 L132.4,182.7 L135.1,184.3 L137.9,186.0 L140.6,187.7 L143.4,189.4 L146.1,191.0 L148.9,192.7    L151.6,194.4 L154.3,196.1 L157.1,197.7 L159.8,199.4 L162.6,201.1 L165.3,202.8 L168.1,204.4 L170.8,206.1    L173.5,207.8 L176.3,209.5 L179.0,211.1 L181.8,212.8 L184.5,214.5 L187.3,216.2 L190.0,217.8 L192.7,219.5    L195.5,221.2 L198.2,222.9 L201.0,224.5 L203.7,226.2 L206.5,227.9 L209.2,229.6 L211.9,231.2 L214.7,232.9    L217.4,234.6 L220.2,236.3 L222.9,237.9 L225.7,239.6 L228.4,241.3 L231.2,243.0 L233.9,244.6 L236.6,246.3    L239.4,248.0 L242.1,249.7 L244.9,251.3 L247.6,253.0 L250.4,254.7 L253.1,256.4 L255.8,258.0 L258.6,259.7    L261.3,261.4 L264.1,263.1 L266.8,264.7 L269.6,266.4 L272.3,268.1 L275.0,269.8 L277.8,271.4 L280.5,273.1    L283.3,274.8 L286.0,276.5 L288.8,278.2 L291.5,279.8 L294.2,281.5 L297.0,283.2 L299.7,284.9 L302.5,286.5    L305.2,288.2 L308.0,289.9 L310.7,291.6 L313.5,293.2 L316.2,294.9 L318.9,296.6 L321.7,298.3 L324.4,299.9    L327.2,301.6 L329.9,303.3 L332.7,305.0 L335.4,306.6 L338.1,308.3 L340.9,310.0 L343.6,311.7 L346.4,313.3    L349.1,315.0 L351.9,316.7 L354.6,318.4 L357.3,320.0 M103.2,143.0 L105.9,144.6 L108.7,146.3 L111.4,148.0    L114.2,149.7 L116.9,151.3 L119.6,153.0 L122.4,154.7 L125.1,156.4 L127.9,158.0 L130.6,159.7 L133.4,161.4    L136.1,163.1 L138.8,164.7 L141.6,166.4 L144.3,168.1 L147.1,169.8 L149.8,171.4 L152.6,173.1 L155.3,174.8    L158.0,176.5 L160.8,178.1 L163.5,179.8 L166.3,181.5 L169.0,183.2 L171.8,184.8 L174.5,186.5 L177.2,188.2    L180.0,189.9 L182.7,191.5 L185.5,193.2 L188.2,194.9 L191.0,196.6 L193.7,198.2 L196.5,199.9 L199.2,201.6    L201.9,203.3 L204.7,205.0 L207.4,206.6 L210.2,208.3 L212.9,210.0 L215.7,211.7 L218.4,213.3 L221.1,215.0    L223.9,216.7 L226.6,218.4 L229.4,220.0 L232.1,221.7 L234.9,223.4 L237.6,225.1 L240.3,226.7 L243.1,228.4    L245.8,230.1 L248.6,231.8 L251.3,233.4 L254.1,235.1 L256.8,236.8 L259.5,238.5 L262.3,240.1 L265.0,241.8    L267.8,243.5 L270.5,245.2 L273.3,246.8 L276.0,248.5 L278.7,250.2 L281.5,251.9 L284.2,253.5 L287.0,255.2    L289.7,256.9 L292.5,258.6 L295.2,260.2 L298.0,261.9 L300.7,263.6 L303.4,265.3 L306.2,266.9 L308.9,268.6    L311.7,270.3 L314.4,272.0 L317.2,273.6 L319.9,275.3 L322.6,277.0 L325.4,278.7 L328.1,280.3 L330.9,282.0    L333.6,283.7 L336.4,285.4 L339.1,287.0 L341.8,288.7 L344.6,290.4 L347.3,292.1 L350.1,293.7 L352.8,295.4    L355.6,297.1 L358.3,298.8 L361.0,300.5 L363.8,302.1 L366.5,303.8 L369.3,305.5 L372.0,307.2 L374.8,308.8    M120.6,131.7 L123.3,133.4 L126.1,135.1 L128.8,136.8 L131.6,138.5 L134.3,140.1 L137.1,141.8 L139.8,143.5    L142.5,145.2 L145.3,146.8 L148.0,148.5 L150.8,150.2 L153.5,151.9 L156.3,153.5 L159.0,155.2 L161.8,156.9    L164.5,158.6 L167.2,160.2 L170.0,161.9 L172.7,163.6 L175.5,165.3 L178.2,166.9 L181.0,168.6 L183.7,170.3    L186.4,172.0 L189.2,173.6 L191.9,175.3 L194.7,177.0 L197.4,178.7 L200.2,180.3 L202.9,182.0 L205.6,183.7    L208.4,185.4 L211.1,187.0 L213.9,188.7 L216.6,190.4 L219.4,192.1 L222.1,193.7 L224.8,195.4 L227.6,197.1    L230.3,198.8 L233.1,200.4 L235.8,202.1 L238.6,203.8 L241.3,205.5 L244.0,207.1 L246.8,208.8 L249.5,210.5    L252.3,212.2 L255.0,213.8 L257.8,215.5 L260.5,217.2 L263.3,218.9 L266.0,220.5 L268.7,222.2 L271.5,223.9    L274.2,225.6 L277.0,227.2 L279.7,228.9 L282.5,230.6 L285.2,232.3 L287.9,234.0 L290.7,235.6 L293.4,237.3    L296.2,239.0 L298.9,240.7 L301.7,242.3 L304.4,244.0 L307.1,245.7 L309.9,247.4 L312.6,249.0 L315.4,250.7    L318.1,252.4 L320.9,254.1 L323.6,255.7 L326.3,257.4 L329.1,259.1 L331.8,260.8 L334.6,262.4 L337.3,264.1    L340.1,265.8 L342.8,267.5 L345.6,269.1 L348.3,270.8 L351.0,272.5 L353.8,274.2 L356.5,275.8 L359.3,277.5    L362.0,279.2 L364.8,280.9 L367.5,282.5 L370.2,284.2 L373.0,285.9 L375.7,287.6 L378.5,289.2 L381.2,290.9    L384.0,292.6 L386.7,294.3 L389.4,295.9 L392.2,297.6 M138.0,120.5 L140.8,122.2 L143.5,123.9 L146.3,125.6    L149.0,127.2 L151.7,128.9 L154.5,130.6 L157.2,132.3 L160.0,133.9 L162.7,135.6 L165.5,137.3 L168.2,139.0    L170.9,140.6 L173.7,142.3 L176.4,144.0 L179.2,145.7 L181.9,147.3 L184.7,149.0 L187.4,150.7 L190.1,152.4    L192.9,154.0 L195.6,155.7 L198.4,157.4 L201.1,159.1 L203.9,160.7 L206.6,162.4 L209.3,164.1 L212.1,165.8    L214.8,167.5 L217.6,169.1 L220.3,170.8 L223.1,172.5 L225.8,174.2 L228.6,175.8 L231.3,177.5 L234.0,179.2    L236.8,180.9 L239.5,182.5 L242.3,184.2 L245.0,185.9 L247.8,187.6 L250.5,189.2 L253.2,190.9 L256.0,192.6    L258.7,194.3 L261.5,195.9 L264.2,197.6 L267.0,199.3 L269.7,201.0 L272.4,202.6 L275.2,204.3 L277.9,206.0    L280.7,207.7 L283.4,209.3 L286.2,211.0 L288.9,212.7 L291.6,214.4 L294.4,216.0 L297.1,217.7 L299.9,219.4    L302.6,221.1 L305.4,222.7 L308.1,224.4 L310.9,226.1 L313.6,227.8 L316.3,229.4 L319.1,231.1 L321.8,232.8    L324.6,234.5 L327.3,236.1 L330.1,237.8 L332.8,239.5 L335.5,241.2 L338.3,242.8 L341.0,244.5 L343.8,246.2    L346.5,247.9 L349.3,249.5 L352.0,251.2 L354.7,252.9 L357.5,254.6 L360.2,256.2 L363.0,257.9 L365.7,259.6    L368.5,261.3 L371.2,263.0 L373.9,264.6 L376.7,266.3 L379.4,268.0 L382.2,269.7 L384.9,271.3 L387.7,273.0    L390.4,274.7 L393.1,276.4 L395.9,278.0 L398.6,279.7 L401.4,281.4 L404.1,283.1 L406.9,284.7 L409.6,286.4    M155.4,109.3 L158.2,111.0 L160.9,112.7 L163.7,114.4 L166.4,116.0 L169.2,117.7 L171.9,119.4 L174.6,121.1    L177.4,122.7 L180.1,124.4 L182.9,126.1 L185.6,127.8 L188.4,129.4 L191.1,131.1 L193.9,132.8 L196.6,134.5    L199.3,136.1 L202.1,137.8 L204.8,139.5 L207.6,141.2 L210.3,142.8 L213.1,144.5 L215.8,146.2 L218.5,147.9    L221.3,149.5 L224.0,151.2 L226.8,152.9 L229.5,154.6 L232.3,156.2 L235.0,157.9 L237.7,159.6 L240.5,161.3    L243.2,162.9 L246.0,164.6 L248.7,166.3 L251.5,168.0 L254.2,169.6 L256.9,171.3 L259.7,173.0 L262.4,174.7    L265.2,176.3 L267.9,178.0 L270.7,179.7 L273.4,181.4 L276.2,183.0 L278.9,184.7 L281.6,186.4 L284.4,188.1    L287.1,189.7 L289.9,191.4 L292.6,193.1 L295.4,194.8 L298.1,196.5 L300.8,198.1 L303.6,199.8 L306.3,201.5    L309.1,203.2 L311.8,204.8 L314.6,206.5 L317.3,208.2 L320.0,209.9 L322.8,211.5 L325.5,213.2 L328.3,214.9    L331.0,216.6 L333.8,218.2 L336.5,219.9 L339.2,221.6 L342.0,223.3 L344.7,224.9 L347.5,226.6 L350.2,228.3    L353.0,230.0 L355.7,231.6 L358.4,233.3 L361.2,235.0 L363.9,236.7 L366.7,238.3 L369.4,240.0 L372.2,241.7    L374.9,243.4 L377.7,245.0 L380.4,246.7 L383.1,248.4 L385.9,250.1 L388.6,251.7 L391.4,253.4 L394.1,255.1    L396.9,256.8 L399.6,258.4 L402.3,260.1 L405.1,261.8 L407.8,263.5 L410.6,265.1 L413.3,266.8 L416.1,268.5    L418.8,270.2 L421.5,271.8 L424.3,273.5 L427.0,275.2 M172.9,98.1 L175.6,99.8 L178.4,101.5 L181.1,103.1    L183.8,104.8 L186.6,106.5 L189.3,108.2 L192.1,109.8 L194.8,111.5 L197.6,113.2 L200.3,114.9 L203.0,116.5    L205.8,118.2 L208.5,119.9 L211.3,121.6 L214.0,123.2 L216.8,124.9 L219.5,126.6 L222.2,128.3 L225.0,130.0    L227.7,131.6 L230.5,133.3 L233.2,135.0 L236.0,136.7 L238.7,138.3 L241.5,140.0 L244.2,141.7 L246.9,143.4    L249.7,145.0 L252.4,146.7 L255.2,148.4 L257.9,150.1 L260.7,151.7 L263.4,153.4 L266.1,155.1 L268.9,156.8    L271.6,158.4 L274.4,160.1 L277.1,161.8 L279.9,163.5 L282.6,165.1 L285.3,166.8 L288.1,168.5 L290.8,170.2    L293.6,171.8 L296.3,173.5 L299.1,175.2 L301.8,176.9 L304.5,178.5 L307.3,180.2 L310.0,181.9 L312.8,183.6    L315.5,185.2 L318.3,186.9 L321.0,188.6 L323.7,190.3 L326.5,191.9 L329.2,193.6 L332.0,195.3 L334.7,197.0    L337.5,198.6 L340.2,200.3 L343.0,202.0 L345.7,203.7 L348.4,205.3 L351.2,207.0 L353.9,208.7 L356.7,210.4    L359.4,212.0 L362.2,213.7 L364.9,215.4 L367.6,217.1 L370.4,218.7 L373.1,220.4 L375.9,222.1 L378.6,223.8    L381.4,225.5 L384.1,227.1 L386.8,228.8 L389.6,230.5 L392.3,232.2 L395.1,233.8 L397.8,235.5 L400.6,237.2    L403.3,238.9 L406.0,240.5 L408.8,242.2 L411.5,243.9 L414.3,245.6 L417.0,247.2 L419.8,248.9 L422.5,250.6    L425.3,252.3 L428.0,253.9 L430.7,255.6 L433.5,257.3 L436.2,259.0 L439.0,260.6 L441.7,262.3 L444.5,264.0    "
       id="path124"
       style="stroke:#000000;stroke-opacity:1;fill:none;fill-opacity:1" />
    <path
       d="M190.3,86.9 L193.0,88.6 L195.8,90.3 L198.5,91.9 L201.3,93.6 L204.0,95.3 L206.8,97.0 L209.5,98.6    L212.2,100.3 L215.0,102.0 L217.7,103.7 L220.5,105.3 L223.2,107.0 L226.0,108.7 L228.7,110.4 L231.4,112.0    L234.2,113.7 L236.9,115.4 L239.7,117.1 L242.4,118.7 L245.2,120.4 L247.9,122.1 L250.6,123.8 L253.4,125.4    L256.1,127.1 L258.9,128.8 L261.6,130.5 L264.4,132.1 L267.1,133.8 L269.8,135.5 L272.6,137.2 L275.3,138.8    L278.1,140.5 L280.8,142.2 L283.6,143.9 L286.3,145.5 L289.0,147.2 L291.8,148.9 L294.5,150.6 L297.3,152.3    L300.0,153.9 L302.8,155.6 L305.5,157.3 L308.3,159.0 L311.0,160.6 L313.7,162.3 L316.5,164.0 L319.2,165.7    L322.0,167.3 L324.7,169.0 L327.5,170.7 L330.2,172.4 L332.9,174.0 L335.7,175.7 L338.4,177.4 L341.2,179.1    L343.9,180.7 L346.7,182.4 L349.4,184.1 L352.1,185.8 L354.9,187.4 L357.6,189.1 L360.4,190.8 L363.1,192.5    L365.9,194.1 L368.6,195.8 L371.3,197.5 L374.1,199.2 L376.8,200.8 L379.6,202.5 L382.3,204.2 L385.1,205.9    L387.8,207.5 L390.6,209.2 L393.3,210.9 L396.0,212.6 L398.8,214.2 L401.5,215.9 L404.3,217.6 L407.0,219.3    L409.8,220.9 L412.5,222.6 L415.2,224.3 L418.0,226.0 L420.7,227.6 L423.5,229.3 L426.2,231.0 L429.0,232.7    L431.7,234.3 L434.4,236.0 L437.2,237.7 L439.9,239.4 L442.7,241.0 L445.4,242.7 L448.2,244.4 L450.9,246.1    L453.6,247.7 L456.4,249.4 L459.1,251.1 L461.9,252.8 M207.7,75.7 L210.5,77.4 L213.2,79.0 L215.9,80.7    L218.7,82.4 L221.4,84.1 L224.2,85.8 L226.9,87.4 L229.7,89.1 L232.4,90.8 L235.1,92.5 L237.9,94.1    L240.6,95.8 L243.4,97.5 L246.1,99.2 L248.9,100.8 L251.6,102.5 L254.3,104.2 L257.1,105.9 L259.8,107.5    L262.6,109.2 L265.3,110.9 L268.1,112.6 L270.8,114.2 L273.6,115.9 L276.3,117.6 L279.0,119.3 L281.8,120.9    L284.5,122.6 L287.3,124.3 L290.0,126.0 L292.8,127.6 L295.5,129.3 L298.2,131.0 L301.0,132.7 L303.7,134.3    L306.5,136.0 L309.2,137.7 L312.0,139.4 L314.7,141.0 L317.4,142.7 L320.2,144.4 L322.9,146.1 L325.7,147.7    L328.4,149.4 L331.2,151.1 L333.9,152.8 L336.6,154.4 L339.4,156.1 L342.1,157.8 L344.9,159.5 L347.6,161.1    L350.4,162.8 L353.1,164.5 L355.9,166.2 L358.6,167.8 L361.3,169.5 L364.1,171.2 L366.8,172.9 L369.6,174.5    L372.3,176.2 L375.1,177.9 L377.8,179.6 L380.5,181.3 L383.3,182.9 L386.0,184.6 L388.8,186.3 L391.5,188.0    L394.3,189.6 L397.0,191.3 L399.7,193.0 L402.5,194.7 L405.2,196.3 L408.0,198.0 L410.7,199.7 L413.5,201.4    L416.2,203.0 L418.9,204.7 L421.7,206.4 L424.4,208.1 L427.2,209.7 L429.9,211.4 L432.7,213.1 L435.4,214.8    L438.1,216.4 L440.9,218.1 L443.6,219.8 L446.4,221.5 L449.1,223.1 L451.9,224.8 L454.6,226.5 L457.4,228.2    L460.1,229.8 L462.8,231.5 L465.6,233.2 L468.3,234.9 L471.1,236.5 L473.8,238.2 L476.6,239.9 L479.3,241.6    M225.1,64.5 L227.9,66.2 L230.6,67.8 L233.4,69.5 L236.1,71.2 L238.9,72.9 L241.6,74.5 L244.3,76.2    L247.1,77.9 L249.8,79.6 L252.6,81.2 L255.3,82.9 L258.1,84.6 L260.8,86.3 L263.5,87.9 L266.3,89.6    L269.0,91.3 L271.8,93.0 L274.5,94.6 L277.3,96.3 L280.0,98.0 L282.7,99.7 L285.5,101.3 L288.2,103.0    L291.0,104.7 L293.7,106.4 L296.5,108.0 L299.2,109.7 L301.9,111.4 L304.7,113.1 L307.4,114.8 L310.2,116.4    L312.9,118.1 L315.7,119.8 L318.4,121.5 L321.2,123.1 L323.9,124.8 L326.6,126.5 L329.4,128.2 L332.1,129.8    L334.9,131.5 L337.6,133.2 L340.4,134.9 L343.1,136.5 L345.8,138.2 L348.6,139.9 L351.3,141.6 L354.1,143.2    L356.8,144.9 L359.6,146.6 L362.3,148.3 L365.0,149.9 L367.8,151.6 L370.5,153.3 L373.3,155.0 L376.0,156.6    L378.8,158.3 L381.5,160.0 L384.2,161.7 L387.0,163.3 L389.7,165.0 L392.5,166.7 L395.2,168.4 L398.0,170.0    L400.7,171.7 L403.4,173.4 L406.2,175.1 L408.9,176.7 L411.7,178.4 L414.4,180.1 L417.2,181.8 L419.9,183.4    L422.7,185.1 L425.4,186.8 L428.1,188.5 L430.9,190.1 L433.6,191.8 L436.4,193.5 L439.1,195.2 L441.9,196.8    L444.6,198.5 L447.3,200.2 L450.1,201.9 L452.8,203.5 L455.6,205.2 L458.3,206.9 L461.1,208.6 L463.8,210.3    L466.5,211.9 L469.3,213.6 L472.0,215.3 L474.8,217.0 L477.5,218.6 L480.3,220.3 L483.0,222.0 L485.7,223.7    L488.5,225.3 L491.2,227.0 L494.0,228.7 L496.7,230.4 M242.6,53.3 L245.3,55.0 L248.0,56.6 L250.8,58.3    L253.5,60.0 L256.3,61.7 L259.0,63.3 L261.8,65.0 L264.5,66.7 L267.2,68.4 L270.0,70.0 L272.7,71.7    L275.5,73.4 L278.2,75.1 L281.0,76.7 L283.7,78.4 L286.4,80.1 L289.2,81.8 L291.9,83.4 L294.7,85.1    L297.4,86.8 L300.2,88.5 L302.9,90.1 L305.7,91.8 L308.4,93.5 L311.1,95.2 L313.9,96.8 L316.6,98.5    L319.4,100.2 L322.1,101.9 L324.9,103.5 L327.6,105.2 L330.3,106.9 L333.1,108.6 L335.8,110.2 L338.6,111.9    L341.3,113.6 L344.1,115.3 L346.8,116.9 L349.5,118.6 L352.3,120.3 L355.0,122.0 L357.8,123.6 L360.5,125.3    L363.3,127.0 L366.0,128.7 L368.7,130.3 L371.5,132.0 L374.2,133.7 L377.0,135.4 L379.7,137.0 L382.5,138.7    L385.2,140.4 L388.0,142.1 L390.7,143.8 L393.4,145.4 L396.2,147.1 L398.9,148.8 L401.7,150.5 L404.4,152.1    L407.2,153.8 L409.9,155.5 L412.6,157.2 L415.4,158.8 L418.1,160.5 L420.9,162.2 L423.6,163.9 L426.4,165.5    L429.1,167.2 L431.8,168.9 L434.6,170.6 L437.3,172.2 L440.1,173.9 L442.8,175.6 L445.6,177.3 L448.3,178.9    L451.0,180.6 L453.8,182.3 L456.5,184.0 L459.3,185.6 L462.0,187.3 L464.8,189.0 L467.5,190.7 L470.3,192.3    L473.0,194.0 L475.7,195.7 L478.5,197.4 L481.2,199.0 L484.0,200.7 L486.7,202.4 L489.5,204.1 L492.2,205.7    L494.9,207.4 L497.7,209.1 L500.4,210.8 L503.2,212.4 L505.9,214.1 L508.7,215.8 L511.4,217.5 L514.1,219.1    M85.8,154.2 L87.3,153.2 L88.9,152.1 L90.5,151.1 L92.1,150.1 L93.7,149.1 L95.3,148.1 L96.8,147.0    L98.4,146.0 L100.0,145.0 L101.6,144.0 L103.2,143.0 L104.8,141.9 L106.3,140.9 L107.9,139.9 L109.5,138.9    L111.1,137.9 L112.7,136.8 L114.3,135.8 L115.9,134.8 L117.4,133.8 L119.0,132.8 L120.6,131.7 L122.2,130.7    L123.8,129.7 L125.4,128.7 L126.9,127.7 L128.5,126.7 L130.1,125.6 L131.7,124.6 L133.3,123.6 L134.9,122.6    L136.4,121.6 L138.0,120.5 L139.6,119.5 L141.2,118.5 L142.8,117.5 L144.4,116.5 L145.9,115.4 L147.5,114.4    L149.1,113.4 L150.7,112.4 L152.3,111.4 L153.9,110.3 L155.4,109.3 L157.0,108.3 L158.6,107.3 L160.2,106.3    L161.8,105.3 L163.4,104.2 L164.9,103.2 L166.5,102.2 L168.1,101.2 L169.7,100.2 L171.3,99.1 L172.9,98.1    L174.5,97.1 L176.0,96.1 L177.6,95.1 L179.2,94.0 L180.8,93.0 L182.4,92.0 L184.0,91.0 L185.5,90.0    L187.1,88.9 L188.7,87.9 L190.3,86.9 L191.9,85.9 L193.5,84.9 L195.0,83.9 L196.6,82.8 L198.2,81.8    L199.8,80.8 L201.4,79.8 L203.0,78.8 L204.5,77.7 L206.1,76.7 L207.7,75.7 L209.3,74.7 L210.9,73.7    L212.5,72.6 L214.0,71.6 L215.6,70.6 L217.2,69.6 L218.8,68.6 L220.4,67.5 L222.0,66.5 L223.6,65.5    L225.1,64.5 L226.7,63.5 L228.3,62.4 L229.9,61.4 L231.5,60.4 L233.1,59.4 L234.6,58.4 L236.2,57.4    L237.8,56.3 L239.4,55.3 L241.0,54.3 L242.6,53.3 M115.9,172.6 L117.5,171.6 L119.1,170.6 L120.7,169.5    L122.3,168.5 L123.9,167.5 L125.4,166.5 L127.0,165.5 L128.6,164.4 L130.2,163.4 L131.8,162.4 L133.4,161.4    L134.9,160.4 L136.5,159.4 L138.1,158.3 L139.7,157.3 L141.3,156.3 L142.9,155.3 L144.4,154.3 L146.0,153.2    L147.6,152.2 L149.2,151.2 L150.8,150.2 L152.4,149.2 L153.9,148.1 L155.5,147.1 L157.1,146.1 L158.7,145.1    L160.3,144.1 L161.9,143.0 L163.4,142.0 L165.0,141.0 L166.6,140.0 L168.2,139.0 L169.8,137.9 L171.4,136.9    L173.0,135.9 L174.5,134.9 L176.1,133.9 L177.7,132.9 L179.3,131.8 L180.9,130.8 L182.5,129.8 L184.0,128.8    L185.6,127.8 L187.2,126.7 L188.8,125.7 L190.4,124.7 L192.0,123.7 L193.5,122.7 L195.1,121.6 L196.7,120.6    L198.3,119.6 L199.9,118.6 L201.5,117.6 L203.0,116.5 L204.6,115.5 L206.2,114.5 L207.8,113.5 L209.4,112.5    L211.0,111.5 L212.5,110.4 L214.1,109.4 L215.7,108.4 L217.3,107.4 L218.9,106.4 L220.5,105.3 L222.1,104.3    L223.6,103.3 L225.2,102.3 L226.8,101.3 L228.4,100.2 L230.0,99.2 L231.6,98.2 L233.1,97.2 L234.7,96.2    L236.3,95.1 L237.9,94.1 L239.5,93.1 L241.1,92.1 L242.6,91.1 L244.2,90.1 L245.8,89.0 L247.4,88.0    L249.0,87.0 L250.6,86.0 L252.1,85.0 L253.7,83.9 L255.3,82.9 L256.9,81.9 L258.5,80.9 L260.1,79.9    L261.6,78.8 L263.2,77.8 L264.8,76.8 L266.4,75.8 L268.0,74.8 L269.6,73.7 L271.1,72.7 L272.7,71.7    "
       id="path126"
       style="stroke:#000000;stroke-opacity:1;fill:none;fill-opacity:1" />
    <path
       d="M146.1,191.0 L147.7,190.0 L149.3,189.0 L150.9,188.0 L152.4,187.0 L154.0,185.9 L155.6,184.9 L157.2,183.9    L158.8,182.9 L160.4,181.9 L161.9,180.8 L163.5,179.8 L165.1,178.8 L166.7,177.8 L168.3,176.8 L169.9,175.7    L171.5,174.7 L173.0,173.7 L174.6,172.7 L176.2,171.7 L177.8,170.6 L179.4,169.6 L181.0,168.6 L182.5,167.6    L184.1,166.6 L185.7,165.6 L187.3,164.5 L188.9,163.5 L190.5,162.5 L192.0,161.5 L193.6,160.5 L195.2,159.4    L196.8,158.4 L198.4,157.4 L200.0,156.4 L201.5,155.4 L203.1,154.3 L204.7,153.3 L206.3,152.3 L207.9,151.3    L209.5,150.3 L211.0,149.2 L212.6,148.2 L214.2,147.2 L215.8,146.2 L217.4,145.2 L219.0,144.1 L220.5,143.1    L222.1,142.1 L223.7,141.1 L225.3,140.1 L226.9,139.1 L228.5,138.0 L230.1,137.0 L231.6,136.0 L233.2,135.0    L234.8,134.0 L236.4,132.9 L238.0,131.9 L239.6,130.9 L241.1,129.9 L242.7,128.9 L244.3,127.8 L245.9,126.8    L247.5,125.8 L249.1,124.8 L250.6,123.8 L252.2,122.7 L253.8,121.7 L255.4,120.7 L257.0,119.7 L258.6,118.7    L260.1,117.7 L261.7,116.6 L263.3,115.6 L264.9,114.6 L266.5,113.6 L268.1,112.6 L269.6,111.5 L271.2,110.5    L272.8,109.5 L274.4,108.5 L276.0,107.5 L277.6,106.4 L279.2,105.4 L280.7,104.4 L282.3,103.4 L283.9,102.4    L285.5,101.3 L287.1,100.3 L288.7,99.3 L290.2,98.3 L291.8,97.3 L293.4,96.3 L295.0,95.2 L296.6,94.2    L298.2,93.2 L299.7,92.2 L301.3,91.2 L302.9,90.1 M176.3,209.5 L177.9,208.4 L179.5,207.4 L181.0,206.4    L182.6,205.4 L184.2,204.4 L185.8,203.3 L187.4,202.3 L189.0,201.3 L190.5,200.3 L192.1,199.3 L193.7,198.2    L195.3,197.2 L196.9,196.2 L198.5,195.2 L200.0,194.2 L201.6,193.2 L203.2,192.1 L204.8,191.1 L206.4,190.1    L208.0,189.1 L209.5,188.1 L211.1,187.0 L212.7,186.0 L214.3,185.0 L215.9,184.0 L217.5,183.0 L219.0,181.9    L220.6,180.9 L222.2,179.9 L223.8,178.9 L225.4,177.9 L227.0,176.8 L228.6,175.8 L230.1,174.8 L231.7,173.8    L233.3,172.8 L234.9,171.8 L236.5,170.7 L238.1,169.7 L239.6,168.7 L241.2,167.7 L242.8,166.7 L244.4,165.6    L246.0,164.6 L247.6,163.6 L249.1,162.6 L250.7,161.6 L252.3,160.5 L253.9,159.5 L255.5,158.5 L257.1,157.5    L258.6,156.5 L260.2,155.4 L261.8,154.4 L263.4,153.4 L265.0,152.4 L266.6,151.4 L268.1,150.4 L269.7,149.3    L271.3,148.3 L272.9,147.3 L274.5,146.3 L276.1,145.3 L277.7,144.2 L279.2,143.2 L280.8,142.2 L282.4,141.2    L284.0,140.2 L285.6,139.1 L287.2,138.1 L288.7,137.1 L290.3,136.1 L291.9,135.1 L293.5,134.0 L295.1,133.0    L296.7,132.0 L298.2,131.0 L299.8,130.0 L301.4,128.9 L303.0,127.9 L304.6,126.9 L306.2,125.9 L307.7,124.9    L309.3,123.9 L310.9,122.8 L312.5,121.8 L314.1,120.8 L315.7,119.8 L317.2,118.8 L318.8,117.7 L320.4,116.7    L322.0,115.7 L323.6,114.7 L325.2,113.7 L326.8,112.6 L328.3,111.6 L329.9,110.6 L331.5,109.6 L333.1,108.6    M206.5,227.9 L208.0,226.9 L209.6,225.9 L211.2,224.8 L212.8,223.8 L214.4,222.8 L216.0,221.8 L217.5,220.8    L219.1,219.7 L220.7,218.7 L222.3,217.7 L223.9,216.7 L225.5,215.7 L227.1,214.6 L228.6,213.6 L230.2,212.6    L231.8,211.6 L233.4,210.6 L235.0,209.5 L236.6,208.5 L238.1,207.5 L239.7,206.5 L241.3,205.5 L242.9,204.4    L244.5,203.4 L246.1,202.4 L247.6,201.4 L249.2,200.4 L250.8,199.4 L252.4,198.3 L254.0,197.3 L255.6,196.3    L257.1,195.3 L258.7,194.3 L260.3,193.2 L261.9,192.2 L263.5,191.2 L265.1,190.2 L266.6,189.2 L268.2,188.1    L269.8,187.1 L271.4,186.1 L273.0,185.1 L274.6,184.1 L276.2,183.0 L277.7,182.0 L279.3,181.0 L280.9,180.0    L282.5,179.0 L284.1,178.0 L285.7,176.9 L287.2,175.9 L288.8,174.9 L290.4,173.9 L292.0,172.9 L293.6,171.8    L295.2,170.8 L296.7,169.8 L298.3,168.8 L299.9,167.8 L301.5,166.7 L303.1,165.7 L304.7,164.7 L306.2,163.7    L307.8,162.7 L309.4,161.6 L311.0,160.6 L312.6,159.6 L314.2,158.6 L315.7,157.6 L317.3,156.6 L318.9,155.5    L320.5,154.5 L322.1,153.5 L323.7,152.5 L325.2,151.5 L326.8,150.4 L328.4,149.4 L330.0,148.4 L331.6,147.4    L333.2,146.4 L334.8,145.3 L336.3,144.3 L337.9,143.3 L339.5,142.3 L341.1,141.3 L342.7,140.2 L344.3,139.2    L345.8,138.2 L347.4,137.2 L349.0,136.2 L350.6,135.1 L352.2,134.1 L353.8,133.1 L355.3,132.1 L356.9,131.1    L358.5,130.1 L360.1,129.0 L361.7,128.0 L363.3,127.0 M236.6,246.3 L238.2,245.3 L239.8,244.3 L241.4,243.3    L243.0,242.2 L244.6,241.2 L246.1,240.2 L247.7,239.2 L249.3,238.2 L250.9,237.1 L252.5,236.1 L254.1,235.1    L255.6,234.1 L257.2,233.1 L258.8,232.1 L260.4,231.0 L262.0,230.0 L263.6,229.0 L265.1,228.0 L266.7,227.0    L268.3,225.9 L269.9,224.9 L271.5,223.9 L273.1,222.9 L274.7,221.9 L276.2,220.8 L277.8,219.8 L279.4,218.8    L281.0,217.8 L282.6,216.8 L284.2,215.7 L285.7,214.7 L287.3,213.7 L288.9,212.7 L290.5,211.7 L292.1,210.6    L293.7,209.6 L295.2,208.6 L296.8,207.6 L298.4,206.6 L300.0,205.6 L301.6,204.5 L303.2,203.5 L304.7,202.5    L306.3,201.5 L307.9,200.5 L309.5,199.4 L311.1,198.4 L312.7,197.4 L314.2,196.4 L315.8,195.4 L317.4,194.3    L319.0,193.3 L320.6,192.3 L322.2,191.3 L323.7,190.3 L325.3,189.2 L326.9,188.2 L328.5,187.2 L330.1,186.2    L331.7,185.2 L333.3,184.2 L334.8,183.1 L336.4,182.1 L338.0,181.1 L339.6,180.1 L341.2,179.1 L342.8,178.0    L344.3,177.0 L345.9,176.0 L347.5,175.0 L349.1,174.0 L350.7,172.9 L352.3,171.9 L353.8,170.9 L355.4,169.9    L357.0,168.9 L358.6,167.8 L360.2,166.8 L361.8,165.8 L363.3,164.8 L364.9,163.8 L366.5,162.8 L368.1,161.7    L369.7,160.7 L371.3,159.7 L372.8,158.7 L374.4,157.7 L376.0,156.6 L377.6,155.6 L379.2,154.6 L380.8,153.6    L382.4,152.6 L383.9,151.5 L385.5,150.5 L387.1,149.5 L388.7,148.5 L390.3,147.5 L391.9,146.4 L393.4,145.4    M266.8,264.7 L268.4,263.7 L270.0,262.7 L271.6,261.7 L273.1,260.7 L274.7,259.7 L276.3,258.6 L277.9,257.6    L279.5,256.6 L281.1,255.6 L282.7,254.6 L284.2,253.5 L285.8,252.5 L287.4,251.5 L289.0,250.5 L290.6,249.5    L292.2,248.4 L293.7,247.4 L295.3,246.4 L296.9,245.4 L298.5,244.4 L300.1,243.3 L301.7,242.3 L303.2,241.3    L304.8,240.3 L306.4,239.3 L308.0,238.3 L309.6,237.2 L311.2,236.2 L312.7,235.2 L314.3,234.2 L315.9,233.2    L317.5,232.1 L319.1,231.1 L320.7,230.1 L322.2,229.1 L323.8,228.1 L325.4,227.0 L327.0,226.0 L328.6,225.0    L330.2,224.0 L331.8,223.0 L333.3,221.9 L334.9,220.9 L336.5,219.9 L338.1,218.9 L339.7,217.9 L341.3,216.8    L342.8,215.8 L344.4,214.8 L346.0,213.8 L347.6,212.8 L349.2,211.8 L350.8,210.7 L352.3,209.7 L353.9,208.7    L355.5,207.7 L357.1,206.7 L358.7,205.6 L360.3,204.6 L361.8,203.6 L363.4,202.6 L365.0,201.6 L366.6,200.5    L368.2,199.5 L369.8,198.5 L371.3,197.5 L372.9,196.5 L374.5,195.4 L376.1,194.4 L377.7,193.4 L379.3,192.4    L380.9,191.4 L382.4,190.4 L384.0,189.3 L385.6,188.3 L387.2,187.3 L388.8,186.3 L390.4,185.3 L391.9,184.2    L393.5,183.2 L395.1,182.2 L396.7,181.2 L398.3,180.2 L399.9,179.1 L401.4,178.1 L403.0,177.1 L404.6,176.1    L406.2,175.1 L407.8,174.0 L409.4,173.0 L410.9,172.0 L412.5,171.0 L414.1,170.0 L415.7,169.0 L417.3,167.9    L418.9,166.9 L420.4,165.9 L422.0,164.9 L423.6,163.9 M297.0,283.2 L298.6,282.2 L300.2,281.1 L301.7,280.1    L303.3,279.1 L304.9,278.1 L306.5,277.1 L308.1,276.0 L309.7,275.0 L311.2,274.0 L312.8,273.0 L314.4,272.0    L316.0,270.9 L317.6,269.9 L319.2,268.9 L320.7,267.9 L322.3,266.9 L323.9,265.9 L325.5,264.8 L327.1,263.8    L328.7,262.8 L330.3,261.8 L331.8,260.8 L333.4,259.7 L335.0,258.7 L336.6,257.7 L338.2,256.7 L339.8,255.7    L341.3,254.6 L342.9,253.6 L344.5,252.6 L346.1,251.6 L347.7,250.6 L349.3,249.5 L350.8,248.5 L352.4,247.5    L354.0,246.5 L355.6,245.5 L357.2,244.5 L358.8,243.4 L360.3,242.4 L361.9,241.4 L363.5,240.4 L365.1,239.4    L366.7,238.3 L368.3,237.3 L369.8,236.3 L371.4,235.3 L373.0,234.3 L374.6,233.2 L376.2,232.2 L377.8,231.2    L379.4,230.2 L380.9,229.2 L382.5,228.1 L384.1,227.1 L385.7,226.1 L387.3,225.1 L388.9,224.1 L390.4,223.1    L392.0,222.0 L393.6,221.0 L395.2,220.0 L396.8,219.0 L398.4,218.0 L399.9,216.9 L401.5,215.9 L403.1,214.9    L404.7,213.9 L406.3,212.9 L407.9,211.8 L409.4,210.8 L411.0,209.8 L412.6,208.8 L414.2,207.8 L415.8,206.7    L417.4,205.7 L418.9,204.7 L420.5,203.7 L422.1,202.7 L423.7,201.6 L425.3,200.6 L426.9,199.6 L428.4,198.6    L430.0,197.6 L431.6,196.6 L433.2,195.5 L434.8,194.5 L436.4,193.5 L438.0,192.5 L439.5,191.5 L441.1,190.4    L442.7,189.4 L444.3,188.4 L445.9,187.4 L447.5,186.4 L449.0,185.3 L450.6,184.3 L452.2,183.3 L453.8,182.3    "
       id="path128"
       style="stroke:#000000;stroke-opacity:1;fill:none;fill-opacity:1" />
    <path
       d="M327.2,301.6 L328.8,300.6 L330.3,299.6 L331.9,298.6 L333.5,297.5 L335.1,296.5 L336.7,295.5 L338.3,294.5    L339.8,293.5 L341.4,292.4 L343.0,291.4 L344.6,290.4 L346.2,289.4 L347.8,288.4 L349.3,287.3 L350.9,286.3    L352.5,285.3 L354.1,284.3 L355.7,283.3 L357.3,282.2 L358.8,281.2 L360.4,280.2 L362.0,279.2 L363.6,278.2    L365.2,277.1 L366.8,276.1 L368.3,275.1 L369.9,274.1 L371.5,273.1 L373.1,272.1 L374.7,271.0 L376.3,270.0    L377.8,269.0 L379.4,268.0 L381.0,267.0 L382.6,265.9 L384.2,264.9 L385.8,263.9 L387.4,262.9 L388.9,261.9    L390.5,260.8 L392.1,259.8 L393.7,258.8 L395.3,257.8 L396.9,256.8 L398.4,255.7 L400.0,254.7 L401.6,253.7    L403.2,252.7 L404.8,251.7 L406.4,250.7 L407.9,249.6 L409.5,248.6 L411.1,247.6 L412.7,246.6 L414.3,245.6    L415.9,244.5 L417.4,243.5 L419.0,242.5 L420.6,241.5 L422.2,240.5 L423.8,239.4 L425.4,238.4 L426.9,237.4    L428.5,236.4 L430.1,235.4 L431.7,234.3 L433.3,233.3 L434.9,232.3 L436.5,231.3 L438.0,230.3 L439.6,229.3    L441.2,228.2 L442.8,227.2 L444.4,226.2 L446.0,225.2 L447.5,224.2 L449.1,223.1 L450.7,222.1 L452.3,221.1    L453.9,220.1 L455.5,219.1 L457.0,218.0 L458.6,217.0 L460.2,216.0 L461.8,215.0 L463.4,214.0 L465.0,212.9    L466.5,211.9 L468.1,210.9 L469.7,209.9 L471.3,208.9 L472.9,207.8 L474.5,206.8 L476.0,205.8 L477.6,204.8    L479.2,203.8 L480.8,202.8 L482.4,201.7 L484.0,200.7 M357.3,320.0 L358.9,319.0 L360.5,318.0 L362.1,317.0    L363.7,316.0 L365.3,314.9 L366.8,313.9 L368.4,312.9 L370.0,311.9 L371.6,310.9 L373.2,309.8 L374.8,308.8    L376.3,307.8 L377.9,306.8 L379.5,305.8 L381.1,304.8 L382.7,303.7 L384.3,302.7 L385.9,301.7 L387.4,300.7    L389.0,299.7 L390.6,298.6 L392.2,297.6 L393.8,296.6 L395.4,295.6 L396.9,294.6 L398.5,293.5 L400.1,292.5    L401.7,291.5 L403.3,290.5 L404.9,289.5 L406.4,288.4 L408.0,287.4 L409.6,286.4 L411.2,285.4 L412.8,284.4    L414.4,283.3 L415.9,282.3 L417.5,281.3 L419.1,280.3 L420.7,279.3 L422.3,278.3 L423.9,277.2 L425.4,276.2    L427.0,275.2 L428.6,274.2 L430.2,273.2 L431.8,272.1 L433.4,271.1 L435.0,270.1 L436.5,269.1 L438.1,268.1    L439.7,267.0 L441.3,266.0 L442.9,265.0 L444.5,264.0 L446.0,263.0 L447.6,261.9 L449.2,260.9 L450.8,259.9    L452.4,258.9 L454.0,257.9 L455.5,256.9 L457.1,255.8 L458.7,254.8 L460.3,253.8 L461.9,252.8 L463.5,251.8    L465.0,250.7 L466.6,249.7 L468.2,248.7 L469.8,247.7 L471.4,246.7 L473.0,245.6 L474.5,244.6 L476.1,243.6    L477.7,242.6 L479.3,241.6 L480.9,240.5 L482.5,239.5 L484.0,238.5 L485.6,237.5 L487.2,236.5 L488.8,235.5    L490.4,234.4 L492.0,233.4 L493.6,232.4 L495.1,231.4 L496.7,230.4 L498.3,229.3 L499.9,228.3 L501.5,227.3    L503.1,226.3 L504.6,225.3 L506.2,224.2 L507.8,223.2 L509.4,222.2 L511.0,221.2 L512.6,220.2 L514.1,219.1    "
       id="path130"
       style="stroke:#000000;stroke-opacity:1;fill:none;fill-opacity:1" />
  </g>
  <g
     style="fill:none; color:black; stroke:black; stroke-width:1.00; stroke-linecap:butt; stroke-linejoin:miter"
     id="g132">
    <path
       d="M514.1,310.5 L357.3,411.4 M85.9,353.2 L357.3,411.4 L357.3,319.9 "
       id="path134" />
    <path
       d="M 435.85626,315.16396 L 555.96696,340.92918"
       id="path2512"
       sodipodi:nodetypes="cc"
       style="marker-start:none;marker-end:url(#Arrow1Lend)" />
    <text
       xml:space="preserve"
       style="font-size:28px;font-style:normal;font-weight:normal;fill:#000000;fill-opacity:1;stroke:none;stroke-width:1px;stroke-linecap:butt;stroke-linejoin:miter;stroke-opacity:1;font-family:Bitstream Vera Sans"
       x="552.43774"
       y="330.22116"
       id="text6133"><tspan
         sodipodi:role="line"
         id="tspan6135"
         x="552.43774"
         y="330.22116">a</tspan></text>
  </g>
</svg>
