<?xml version="1.0" encoding="UTF-8" standalone="no"?>
<svg
   xmlns:dc="http://purl.org/dc/elements/1.1/"
   xmlns:cc="http://creativecommons.org/ns#"
   xmlns:rdf="http://www.w3.org/1999/02/22-rdf-syntax-ns#"
   xmlns:svg="http://www.w3.org/2000/svg"
   xmlns="http://www.w3.org/2000/svg"
   xmlns:xlink="http://www.w3.org/1999/xlink"
   xmlns:sodipodi="http://sodipodi.sourceforge.net/DTD/sodipodi-0.dtd"
   xmlns:inkscape="http://www.inkscape.org/namespaces/inkscape"
   width="600"
   height="480"
   viewBox="0 0 600 480"
   id="svg2"
   sodipodi:version="0.32"
   inkscape:version="0.46"
   sodipodi:docname="compton.svg"
   inkscape:output_extension="org.inkscape.output.svg.inkscape">
  <metadata
     id="metadata155">
    <rdf:RDF>
      <cc:Work
         rdf:about="">
        <dc:format>image/svg+xml</dc:format>
        <dc:type
           rdf:resource="http://purl.org/dc/dcmitype/StillImage" />
      </cc:Work>
    </rdf:RDF>
  </metadata>
  <sodipodi:namedview
     inkscape:window-height="746"
     inkscape:window-width="1024"
     inkscape:pageshadow="2"
     inkscape:pageopacity="0.0"
     guidetolerance="10.0"
     gridtolerance="10.0"
     objecttolerance="10.0"
     borderopacity="1.0"
     bordercolor="#666666"
     pagecolor="#ffffff"
     id="base"
     showgrid="false"
     inkscape:zoom="1.1837195"
     inkscape:cx="363.50653"
     inkscape:cy="252.98672"
     inkscape:window-x="-5"
     inkscape:window-y="-3"
     inkscape:current-layer="g24" />
  <desc
     id="desc4">Produced by GNUPLOT 4.2 patchlevel 3  </desc>
  <defs
     id="defs6">
    <marker
       inkscape:stockid="Arrow1Lstart"
       orient="auto"
       refY="0.0"
       refX="0.0"
       id="Arrow1Lstart"
       style="overflow:visible">
      <path
         id="path3417"
         d="M 0.0,0.0 L 5.0,-5.0 L -12.5,0.0 L 5.0,5.0 L 0.0,0.0 z "
         style="fill-rule:evenodd;stroke:#000000;stroke-width:1.0pt;marker-start:none"
         transform="scale(0.8) translate(12.5,0)" />
    </marker>
    <marker
       inkscape:stockid="Arrow1Mstart"
       orient="auto"
       refY="0.0"
       refX="0.0"
       id="Arrow1Mstart"
       style="overflow:visible">
      <path
         id="path3423"
         d="M 0.0,0.0 L 5.0,-5.0 L -12.5,0.0 L 5.0,5.0 L 0.0,0.0 z "
         style="fill-rule:evenodd;stroke:#000000;stroke-width:1.0pt;marker-start:none"
         transform="scale(0.4) translate(10,0)" />
    </marker>
    <marker
       inkscape:stockid="Arrow1Send"
       orient="auto"
       refY="0.0"
       refX="0.0"
       id="Arrow1Send"
       style="overflow:visible;">
      <path
         id="path3432"
         d="M 0.0,0.0 L 5.0,-5.0 L -12.5,0.0 L 5.0,5.0 L 0.0,0.0 z "
         style="fill-rule:evenodd;stroke:#000000;stroke-width:1.0pt;marker-start:none;"
         transform="scale(0.2) rotate(180) translate(6,0)" />
    </marker>
    <marker
       inkscape:stockid="Arrow1Lend"
       orient="auto"
       refY="0.0"
       refX="0.0"
       id="Arrow1Lend"
       style="overflow:visible;">
      <path
         id="path3420"
         d="M 0.0,0.0 L 5.0,-5.0 L -12.5,0.0 L 5.0,5.0 L 0.0,0.0 z "
         style="fill-rule:evenodd;stroke:#000000;stroke-width:1.0pt;marker-start:none;"
         transform="scale(0.8) rotate(180) translate(12.5,0)" />
    </marker>
    <marker
       inkscape:stockid="Arrow1Mend"
       orient="auto"
       refY="0.0"
       refX="0.0"
       id="Arrow1Mend"
       style="overflow:visible;">
      <path
         id="path3426"
         d="M 0.0,0.0 L 5.0,-5.0 L -12.5,0.0 L 5.0,5.0 L 0.0,0.0 z "
         style="fill-rule:evenodd;stroke:#000000;stroke-width:1.0pt;marker-start:none;"
         transform="scale(0.4) rotate(180) translate(10,0)" />
    </marker>
    <inkscape:perspective
       sodipodi:type="inkscape:persp3d"
       inkscape:vp_x="0 : 240 : 1"
       inkscape:vp_y="0 : 1000 : 0"
       inkscape:vp_z="600 : 240 : 1"
       inkscape:persp3d-origin="300 : 160 : 1"
       id="perspective157" />
    <circle
       id="gpDot"
       r="1" />
    <path
       id="gpPt0"
       style="stroke-width:0.222"
       d="M-1,0 h2 M0,-1 v2" />
    <path
       id="gpPt1"
       style="stroke-width:0.222"
       d="M-1,-1 L1,1 M1,-1 L-1,1" />
    <path
       id="gpPt2"
       style="stroke-width:0.222"
       d="M-1,0 L1,0 M0,-1 L0,1 M-1,-1 L1,1 M-1,1 L1,-1" />
    <rect
       id="gpPt3"
       style="stroke-width:0.222"
       x="-1"
       y="-1"
       width="2"
       height="2" />
    <use
       xlink:href="#gpPt3"
       id="gpPt4"
       style="fill:currentColor; stroke:none" />
    <circle
       id="gpPt5"
       style="stroke-width:0.222"
       cx="0"
       cy="0"
       r="1" />
    <use
       xlink:href="#gpPt5"
       id="gpPt6"
       style="fill:currentColor; stroke:none" />
    <path
       id="gpPt7"
       style="stroke-width:0.222"
       d="M0,-1.33 L-1.33,0.67 L1.33,0.67 z" />
    <use
       xlink:href="#gpPt7"
       id="gpPt8"
       style="fill:currentColor; stroke:none" />
    <use
       xlink:href="#gpPt7"
       id="gpPt9"
       transform="rotate(180)" />
    <use
       xlink:href="#gpPt9"
       id="gpPt10"
       style="fill:currentColor; stroke:none" />
    <use
       xlink:href="#gpPt3"
       id="gpPt11"
       transform="rotate(45)" />
    <use
       xlink:href="#gpPt11"
       id="gpPt12"
       style="fill:currentColor; stroke:none" />
  </defs>
  <g
     style="fill:none; color:white; stroke:white; stroke-width:1.00; stroke-linecap:butt; stroke-linejoin:miter"
     id="g22" />
  <g
     style="fill:none;stroke:#ff0000;stroke-width:1;stroke-linecap:butt;stroke-linejoin:miter"
     id="g106"
     transform="translate(-68,0)">
    <path
       d="M 428.20001,230.3 C 452.14897,225.73521 467.46199,201.33615 470.23795,178.40816 C 474.75922,142.35484 453.66515,108.15244 426.34357,86.339127 C 378.5613,48.719088 313.45403,38.285691 254.65618,49.768764 C 198.19363,60.354375 144.46656,92.364615 113.23179,141.26475 C 85.97877,182.47538 78.630918,236.47774 95.54622,283.07206 C 112.72018,333.22002 153.9032,372.66486 201.70229,394.08416 C 260.37677,420.62946 330.7772,423.16529 389.85939,396.4507 C 427.42869,379.6615 461.86079,347.97426 469.70001,306.10001 C 475.52043,276.30967 461.42658,239.3792 430.25854,230.55495 C 429.59272,230.3575 428.89308,230.28152 428.20001,230.3 z"
       id="path108" />
  </g>
  <g
     style="fill:none;stroke:#000000;stroke-width:1;stroke-linecap:butt;stroke-linejoin:miter"
     id="g24"
     transform="translate(-68,0)">
    <g
       transform="translate(78,448.5)"
       style="font-size:15px;text-anchor:end;fill:#000000;stroke:none;font-family:Arial"
       id="g28">
      <text
         id="text30" />
    </g>
    <g
       transform="translate(78,377.3)"
       style="font-size:15px;text-anchor:end;fill:#000000;stroke:none;font-family:Arial"
       id="g34">
      <text
         id="text36" />
    </g>
    <g
       transform="translate(78,306)"
       style="font-size:15px;text-anchor:end;fill:#000000;stroke:none;font-family:Arial"
       id="g40">
      <text
         id="text42" />
    </g>
    <path
       d="M 513.7,230.3 L 427.63479,230.3"
       id="path44"
       sodipodi:nodetypes="cc"
       style="stroke-width:1;stroke-miterlimit:4;stroke-dasharray:4, 8;stroke-dashoffset:0" />
    <path
       d="M 294.55069,230.3 L 428.0334,230.3"
       id="path3394"
       sodipodi:nodetypes="cc"
       style="fill:none;fill-opacity:1;stroke:#0000ff;stroke-opacity:1;marker-end:url(#Arrow1Lend)" />
    <g
       transform="translate(78,234.8)"
       style="font-size:15px;text-anchor:end;fill:#000000;stroke:none;font-family:Arial"
       id="g46">
      <text
         id="text48" />
    </g>
    <g
       transform="translate(78,163.6)"
       style="font-size:15px;text-anchor:end;fill:#000000;stroke:none;font-family:Arial"
       id="g52">
      <text
         id="text54" />
    </g>
    <g
       transform="translate(78,92.3)"
       style="font-size:15px;text-anchor:end;fill:#000000;stroke:none;font-family:Arial"
       id="g58">
      <text
         id="text60" />
    </g>
    <g
       transform="translate(78,21.1)"
       style="font-size:15px;text-anchor:end;fill:#000000;stroke:none;font-family:Arial"
       id="g64">
      <text
         id="text66" />
    </g>
    <path
       style="fill:none;fill-rule:evenodd;stroke:#0000ff;stroke-width:1px;stroke-linecap:butt;stroke-linejoin:miter;stroke-opacity:1;marker-end:none;marker-start:url(#Arrow1Lstart)"
       d="M 547.81188,102.85008 L 427.95768,230.52087"
       id="path3396"
       sodipodi:nodetypes="cc" />
    <path
       style="fill:none;fill-rule:evenodd;stroke:#000000;stroke-width:1px;stroke-linecap:butt;stroke-linejoin:miter;stroke-opacity:1;marker-start:url(#Arrow1Lstart)"
       d="M 571.91301,311.29218 L 428.60906,230.52087"
       id="path3398"
       sodipodi:nodetypes="cc" />
    <path
       sodipodi:type="arc"
       style="fill:#000000;fill-opacity:1;stroke:#000000;stroke-width:1;stroke-miterlimit:4;stroke-dasharray:none;stroke-dashoffset:0;stroke-opacity:1"
       id="path3412"
       sodipodi:cx="428.47256"
       sodipodi:cy="230.29199"
       sodipodi:rx="3.0530579"
       sodipodi:ry="3.0530579"
       d="M 431.52562,230.29199 A 3.0530579,3.0530579 0 1 1 425.41951,230.29199 A 3.0530579,3.0530579 0 1 1 431.52562,230.29199 z" />
    <path
       d="M 475.69047,179.65463 A 69.236359,69.236359 0 0 1 497.70887,230.2078"
       sodipodi:ry="69.236359"
       sodipodi:rx="69.236359"
       sodipodi:cy="230.29199"
       sodipodi:cx="428.47256"
       id="path9518"
       style="fill:none;fill-opacity:1;stroke:#000000;stroke-width:0.5;stroke-miterlimit:4;stroke-dasharray:none;stroke-dashoffset:0;stroke-opacity:1"
       sodipodi:type="arc"
       sodipodi:start="5.4628573"
       sodipodi:end="6.2819693"
       sodipodi:open="true" />
    <text
       xml:space="preserve"
       style="font-size:30px;font-style:normal;font-weight:normal;fill:#000000;fill-opacity:1;stroke:none;stroke-width:1px;stroke-linecap:butt;stroke-linejoin:miter;stroke-opacity:1;font-family:Bitstream Vera Sans"
       x="504.09583"
       y="205.83217"
       id="text2436"><tspan
         sodipodi:role="line"
         id="tspan2438"
         x="504.09583"
         y="205.83217">ϑ</tspan></text>
    <text
       xml:space="preserve"
       style="font-size:20px;font-style:normal;font-weight:normal;fill:#000000;fill-opacity:1;stroke:none;stroke-width:1px;stroke-linecap:butt;stroke-linejoin:miter;stroke-opacity:1;font-family:Bitstream Vera Sans"
       x="365.99692"
       y="395.13644"
       id="text2440"><tspan
         sodipodi:role="line"
         id="tspan2442"
         x="365.99692"
         y="395.13644">π</tspan></text>
    <text
       id="text2444"
       y="395.13644"
       x="227.99692"
       style="font-size:20px;font-style:normal;font-weight:normal;fill:#000000;fill-opacity:1;stroke:none;stroke-width:1px;stroke-linecap:butt;stroke-linejoin:miter;stroke-opacity:1;font-family:Bitstream Vera Sans"
       xml:space="preserve"><tspan
         y="395.13644"
         x="227.99692"
         id="tspan2446"
         sodipodi:role="line">-π</tspan></text>
    <text
       xml:space="preserve"
       style="font-size:20px;font-style:normal;font-weight:normal;fill:#000000;fill-opacity:1;stroke:none;stroke-width:1px;stroke-linecap:butt;stroke-linejoin:miter;stroke-opacity:1;font-family:Bitstream Vera Sans"
       x="297.99692"
       y="397.13644"
       id="text2448"><tspan
         sodipodi:role="line"
         id="tspan2450"
         x="297.99692"
         y="397.13644">0</tspan></text>
    <g
       id="g2464"
       transform="translate(0,-1.6895895)">
      <text
         transform="translate(68,0)"
         id="text2452"
         y="213.88966"
         x="206.97472"
         style="font-size:40px;font-style:normal;font-weight:normal;fill:#000000;fill-opacity:1;stroke:none;stroke-width:1px;stroke-linecap:butt;stroke-linejoin:miter;stroke-opacity:1;font-family:Bitstream Vera Sans"
         xml:space="preserve"><tspan
           y="213.88966"
           x="206.97472"
           id="tspan2454"
           sodipodi:role="line">p</tspan></text>
      <text
         id="text2460"
         y="230.78555"
         x="291.02582"
         style="font-size:30px;font-style:normal;font-weight:normal;fill:#000000;fill-opacity:1;stroke:none;stroke-width:1px;stroke-linecap:butt;stroke-linejoin:miter;stroke-opacity:1;font-family:Bitstream Vera Sans"
         xml:space="preserve"><tspan
           y="230.78555"
           x="291.02582"
           id="tspan2462"
           sodipodi:role="line">ˠ</tspan></text>
    </g>
    <g
       transform="translate(277.09267,-101.37537)"
       id="g2470">
      <text
         xml:space="preserve"
         style="font-size:40px;font-style:normal;font-weight:normal;fill:#000000;fill-opacity:1;stroke:none;stroke-width:1px;stroke-linecap:butt;stroke-linejoin:miter;stroke-opacity:1;font-family:Bitstream Vera Sans"
         x="206.97472"
         y="213.88966"
         id="text2472"
         transform="translate(68,0)"><tspan
           sodipodi:role="line"
           id="tspan2474"
           x="206.97472"
           y="213.88966">p'</tspan></text>
      <text
         xml:space="preserve"
         style="font-size:30px;font-style:normal;font-weight:normal;fill:#000000;fill-opacity:1;stroke:none;stroke-width:1px;stroke-linecap:butt;stroke-linejoin:miter;stroke-opacity:1;font-family:Bitstream Vera Sans"
         x="291.02582"
         y="230.78555"
         id="text2476"><tspan
           sodipodi:role="line"
           id="tspan2478"
           x="291.02582"
           y="230.78555">ˠ</tspan></text>
    </g>
    <g
       id="g2480"
       transform="translate(281.31664,130.94318)">
      <text
         transform="translate(68,0)"
         id="text2482"
         y="213.88966"
         x="206.97472"
         style="font-size:40px;font-style:normal;font-weight:normal;fill:#000000;fill-opacity:1;stroke:none;stroke-width:1px;stroke-linecap:butt;stroke-linejoin:miter;stroke-opacity:1;font-family:Bitstream Vera Sans"
         xml:space="preserve"><tspan
           y="213.88966"
           x="206.97472"
           id="tspan2484"
           sodipodi:role="line">p'</tspan></text>
      <text
         id="text2486"
         y="230.78555"
         x="291.02582"
         style="font-size:30px;font-style:normal;font-weight:normal;fill:#000000;fill-opacity:1;stroke:none;stroke-width:1px;stroke-linecap:butt;stroke-linejoin:miter;stroke-opacity:1;font-family:Bitstream Vera Sans"
         xml:space="preserve"><tspan
           y="230.78555"
           x="291.02582"
           id="tspan2488"
           sodipodi:role="line">e</tspan></text>
    </g>
  </g>
  <path
     style="stroke:#000000;stroke-width:1;stroke-linecap:butt;stroke-linejoin:miter"
     id="path114"
     d="M 166.11747,380.29209 L 166.11747,371.29209 M 166.11747,240.89209 L 166.11747,249.89209" />
  <path
     style="stroke:#000000;stroke-width:1;stroke-linecap:butt;stroke-linejoin:miter"
     d="M 201.01747,380.29209 L 201.01747,371.29209"
     id="path2598" />
  <path
     style="stroke:#000000;stroke-width:1;stroke-linecap:butt;stroke-linejoin:miter"
     d="M 235.81747,380.29209 L 235.81747,371.29209"
     id="path2602" />
  <path
     style="stroke:#000000;stroke-width:1;stroke-linecap:butt;stroke-linejoin:miter"
     d="M 270.71747,380.29209 L 270.71747,371.29209"
     id="path2606" />
  <path
     style="stroke:#000000;stroke-width:1;stroke-linecap:butt;stroke-linejoin:miter"
     id="path138"
     d="M 305.51747,380.29209 L 305.51747,371.29209 M 305.51747,240.89209 L 305.51747,249.89209" />
  <g
     style="fill:none;stroke:#ff0000;stroke-width:1;stroke-linecap:butt;stroke-linejoin:miter"
     id="g146"
     transform="translate(-124.18253,176.29208)">
    <path
       d="M 290.3,64.6 L 291.7,64.7 L 293.1,65.2 L 294.5,65.9 L 295.9,66.8 L 297.3,68.1 L 298.7,69.6 L 300.2,71.4 L 301.6,73.4 L 303,75.7 L 304.4,78.2 L 305.8,80.9 L 307.2,83.9 L 308.6,87 L 310,90.4 L 311.4,93.9 L 312.8,97.6 L 314.2,101.4 L 315.6,105.4 L 317.1,109.4 L 318.5,113.6 L 319.9,117.9 L 321.3,122.2 L 322.7,126.6 L 324.1,131 L 325.5,135.4 L 326.9,139.8 L 328.3,144.2 L 329.7,148.6 L 331.1,152.9 L 332.5,157.1 L 334,161.3 L 335.4,165.3 L 336.8,169.2 L 338.2,172.9 L 339.6,176.5 L 341,180 L 342.4,183.2 L 343.8,186.3 L 345.2,189.1 L 346.6,191.7 L 348,194.1 L 349.4,196.3 L 350.8,198.2 L 352.3,199.8 L 353.7,201.2 L 355.1,202.3 L 356.5,203.2 L 357.9,203.7 L 359.3,204 L 360.7,204 L 362.1,203.7 L 363.5,203.2 L 364.9,202.3 L 366.3,201.2 L 367.7,199.8 L 369.2,198.2 L 370.6,196.3 L 372,194.1 L 373.4,191.7 L 374.8,189.1 L 376.2,186.3 L 377.6,183.2 L 379,180 L 380.4,176.5 L 381.8,172.9 L 383.2,169.2 L 384.6,165.3 L 386,161.3 L 387.5,157.1 L 388.9,152.9 L 390.3,148.6 L 391.7,144.2 L 393.1,139.8 L 394.5,135.4 L 395.9,131 L 397.3,126.6 L 398.7,122.2 L 400.1,117.9 L 401.5,113.6 L 402.9,109.4 L 404.4,105.4 L 405.8,101.4 L 407.2,97.6 L 408.6,93.9 L 410,90.4 L 411.4,87 L 412.8,83.9 L 414.2,80.9 L 415.6,78.2 L 417,75.7 L 418.4,73.4 L 419.8,71.4 L 421.3,69.6 L 422.7,68.1 L 424.1,66.8 L 425.5,65.9 L 426.9,65.2 L 428.3,64.7 L 429.7,64.6"
       id="path148" />
  </g>
  <g
     style="fill:none;stroke:#000000;stroke-width:1;stroke-linecap:butt;stroke-linejoin:miter"
     id="g150"
     transform="translate(-124.18253,176.29208)">
    <path
       d="M 290.3,64.6 L 290.3,204 L 429.7,204 L 429.7,64.6 L 290.3,64.6 z"
       id="path152" />
  </g>
</svg>
